<svg width="328" height="587" viewBox="0 0 328 587" fill="none" xmlns="http://www.w3.org/2000/svg">
<path d="M55.104 469.6L48.1307 461.006C48.1307 461.006 44.1029 471.49 37.9496 464.188C36.7496 462.818 35.8175 460.814 35.2826 458.454C34.7478 456.094 34.6367 453.494 34.9648 451.016C35.2249 448.926 35.7575 446.976 36.5191 445.326C37.2807 443.675 38.2497 442.37 39.3469 441.518C41.8659 439.487 45.6773 439.51 49.8101 446.777L60.6209 418.601L53.7264 410.113L47.396 426.549C47.396 426.549 36.0078 419.118 28.6737 438.184C21.6611 456.428 29.1723 471.924 33.0886 476.738C36.08 480.506 46.74 491.765 55.104 469.6Z" fill="#EBEBEB"/>
<path d="M55.8398 404.259L62.833 412.871L67.3286 401.177L60.3354 392.566L55.8398 404.259Z" fill="#EBEBEB"/>
<path d="M84.7945 504.104L88.4944 502.355C88.3845 501.601 88.3594 500.816 88.4206 500.046C88.4818 499.275 88.6281 498.534 88.8509 497.865C89.0738 497.196 89.3687 496.614 89.7186 496.151C90.0684 495.688 90.4662 495.355 90.8888 495.17C91.5051 494.834 92.1647 494.852 92.7751 495.22C93.3856 495.589 93.9164 496.289 94.2934 497.224C94.6174 497.998 94.8345 498.898 94.9268 499.851C95.0192 500.804 94.9842 501.783 94.8248 502.707C94.4705 504.855 93.3422 507.191 90.7313 507.579L92.9289 522.524L96.5894 520.798L95.2774 512.04C96.6614 510.538 97.7318 508.265 98.3243 505.57C98.9169 502.874 98.9987 499.905 98.5574 497.119C97.1273 487.433 91.9384 487.468 89.8654 488.454C88.3107 489.206 83.0037 492.446 84.7945 504.104Z" fill="#EBEBEB"/>
<path d="M97.1056 523.832L93.3886 525.587L94.304 531.796L98.021 530.041L97.1056 523.832Z" fill="#EBEBEB"/>
<path d="M146.288 85.7842C148.159 83.7434 150.176 82.1638 152.284 81.0882L153.517 70.5222L163.547 70.2052L164.991 80.7712C167.118 81.7039 169.166 83.1452 171.078 85.0563L176.149 79.1041L183.365 91.572L180.223 100.847C181.359 104.204 182.242 107.816 182.847 111.589L188.784 113.796L188.954 131.746L183.05 134.329C182.526 138.135 181.721 141.799 180.656 145.224L183.975 154.299L177.008 167.213L171.826 161.589C169.952 163.63 167.933 165.21 165.824 166.285L164.59 176.922L154.56 177.227L153.117 166.661C150.988 165.734 148.94 164.292 147.029 162.376L141.958 168.328L134.742 155.86L137.885 146.586C136.744 143.232 135.862 139.619 135.261 135.844L129.357 133.636L129.179 115.686L135.083 113.103C135.595 109.273 136.394 105.585 137.458 102.138L134.132 93.063L141.099 80.149L146.288 85.7842ZM151.634 109.699C150.159 112.442 149.171 115.907 148.795 119.655C148.42 123.403 148.674 127.266 149.526 130.756C150.377 134.246 151.788 137.205 153.579 139.26C155.37 141.316 157.462 142.374 159.589 142.302C161.716 142.229 163.784 141.03 165.531 138.855C167.277 136.679 168.624 133.626 169.401 130.081C170.178 126.536 170.35 122.658 169.895 118.938C169.44 115.218 168.38 111.823 166.847 109.182C164.791 105.643 162.033 103.709 159.181 103.806C156.329 103.903 153.614 106.022 151.634 109.699Z" fill="#F5F5F5"/>
<path d="M104.304 48.3571C105.385 47.1951 106.548 46.295 107.761 45.6803L108.47 39.5521L114.249 39.376L115.082 45.4455C116.306 45.9814 117.485 46.8107 118.585 47.9109L121.504 44.4829L125.637 51.656L123.827 56.9977C124.479 58.9307 124.985 61.0115 125.329 63.1847L128.747 64.4526L128.845 74.7955L125.453 76.31C125.155 78.5018 124.692 80.6109 124.076 82.5792L125.991 87.8035L121.977 95.2466L118.992 92.0064C117.912 93.1748 116.749 94.079 115.535 94.6948L114.8 100.8L109.021 100.987L108.24 94.9179C107.016 94.3727 105.838 93.5398 104.737 92.4408L101.818 95.8688L97.6587 88.684L99.443 83.354C98.789 81.4262 98.2837 79.3489 97.9408 77.1788L94.523 75.8991L94.4181 65.5562L97.8162 64.0769C98.1144 61.8814 98.5778 59.7684 99.1938 57.796L97.2782 52.5717L101.293 45.1403L104.304 48.3571ZM107.381 62.1398C106.525 63.7158 105.949 65.7113 105.728 67.8733C105.507 70.0352 105.649 72.2661 106.137 74.2829C106.625 76.2997 107.437 78.0116 108.47 79.2014C109.503 80.3911 110.709 81.0051 111.937 80.9655C113.165 80.9259 114.359 80.2344 115.367 78.9788C116.375 77.7232 117.152 75.96 117.599 73.913C118.046 71.866 118.144 69.6274 117.879 67.4811C117.614 65.3349 116.999 63.3778 116.112 61.8581C114.929 59.8196 113.343 58.7043 111.701 58.7572C110.059 58.81 108.496 60.0266 107.354 62.1398H107.381Z" fill="#EBEBEB"/>
<path d="M288.686 240.33C289.765 239.164 290.925 238.26 292.136 237.641L292.852 231.525L298.624 231.348L299.457 237.418C300.684 237.952 301.865 238.781 302.967 239.883L305.886 236.455L310.039 243.64L308.228 248.982C308.881 250.915 309.386 252.996 309.73 255.169L313.155 256.437L313.253 266.78L309.862 268.271C309.556 270.459 309.093 272.566 308.484 274.54L310.393 279.764L306.385 287.207L303.4 283.967C302.32 285.136 301.157 286.04 299.943 286.656L299.228 292.772L293.455 292.96L292.622 286.879C291.397 286.345 290.219 285.515 289.119 284.413L286.193 287.841L282.041 280.656L283.851 275.315C283.197 273.383 282.692 271.302 282.349 269.128L278.931 267.86L278.826 257.517L282.218 256.026C282.523 253.838 282.986 251.731 283.595 249.757L281.686 244.532L285.695 237.089L288.686 240.33ZM291.763 254.101C290.91 255.678 290.339 257.673 290.12 259.832C289.902 261.992 290.046 264.218 290.534 266.231C291.023 268.244 291.834 269.952 292.865 271.14C293.896 272.327 295.101 272.941 296.327 272.903C297.553 272.866 298.745 272.178 299.753 270.927C300.76 269.677 301.538 267.92 301.988 265.878C302.437 263.837 302.538 261.602 302.278 259.458C302.018 257.313 301.409 255.355 300.527 253.831C299.344 251.79 297.756 250.672 296.113 250.723C294.47 250.773 292.906 251.988 291.763 254.101Z" fill="#EBEBEB"/>
<path d="M304.24 546.274C304.24 546.45 242.031 546.579 165.319 546.579C88.6059 546.579 26.3843 546.45 26.3843 546.274C26.3843 546.098 88.5731 545.969 165.319 545.969C242.064 545.969 304.24 546.109 304.24 546.274Z" fill="#263238"/>
<path d="M273.985 545.417L180.833 545.323C175.452 545.317 170.293 541.487 166.49 534.676C162.686 527.864 160.549 518.629 160.549 508.999L160.595 91.0554C160.607 81.4174 162.755 72.1816 166.568 65.3741C170.38 58.5667 175.546 54.7436 180.931 54.7436L274.083 54.8493C279.464 54.8555 284.623 58.6852 288.427 65.4965C292.23 72.3078 294.367 81.5433 294.367 91.1729L294.321 509.117C294.321 513.892 293.795 518.62 292.772 523.03C291.749 527.44 290.251 531.446 288.361 534.818C286.472 538.19 284.23 540.862 281.763 542.681C279.296 544.499 276.653 545.429 273.985 545.417Z" fill="#455A64"/>
<path d="M273.952 69.583H255.892C254.702 69.6323 253.571 70.5255 252.748 72.0665C251.925 73.6074 251.477 75.67 251.504 77.801V83.671C251.53 85.802 251.083 87.8646 250.26 89.4055C249.437 90.9465 248.306 91.8397 247.115 91.889H211.908C210.718 91.8367 209.589 90.9421 208.767 89.4015C207.946 87.8609 207.499 85.8 207.526 83.671V77.801C207.552 75.67 207.105 73.6074 206.282 72.0665C205.459 70.5255 204.328 69.6323 203.137 69.583H180.977C177.216 69.5767 173.606 72.2402 170.94 76.9894C168.274 81.7386 166.769 88.186 166.755 94.9179L166.709 502.906C166.716 509.643 168.216 516.101 170.88 520.861C173.544 525.622 177.154 528.297 180.918 528.3L273.893 528.394C275.76 528.395 277.609 527.739 279.334 526.462C281.059 525.185 282.626 523.312 283.947 520.951C285.268 518.59 286.315 515.786 287.031 512.7C287.746 509.614 288.114 506.306 288.115 502.965L288.154 94.9766C288.149 88.2406 286.651 81.7835 283.988 77.0226C281.325 72.2617 277.716 69.5861 273.952 69.583Z" fill="white"/>
<path d="M288.148 155.332V94.554C288.081 87.8936 286.556 81.5462 283.902 76.8766C281.247 72.207 277.674 69.5881 273.952 69.583H255.892C255.303 69.6059 254.721 69.8367 254.181 70.2623C253.641 70.6878 253.153 71.2998 252.746 72.0631C252.338 72.8264 252.019 73.7261 251.805 74.7107C251.592 75.6953 251.49 76.7454 251.504 77.801V83.671C251.53 85.802 251.083 87.8646 250.26 89.4055C249.437 90.9465 248.306 91.8397 247.115 91.889H211.908C210.718 91.8367 209.589 90.9421 208.767 89.4015C207.946 87.8609 207.499 85.8 207.526 83.671V77.801C207.552 75.67 207.105 73.6074 206.282 72.0665C205.459 70.5255 204.328 69.6323 203.137 69.583H180.977C177.216 69.5767 173.606 72.2402 170.94 76.9894C168.274 81.7386 166.769 88.186 166.755 94.9179V155.52H288.148V155.332Z" fill="#EBEBEB"/>
<path d="M191.513 237.77C199.639 237.77 206.227 226.007 206.227 211.496C206.227 196.985 199.639 185.222 191.513 185.222C183.386 185.222 176.799 196.985 176.799 211.496C176.799 226.007 183.386 237.77 191.513 237.77Z" fill="#E0E0E0"/>
<path d="M184.638 218.07L188.495 217.483L197.902 220.325L199.011 232.992L198.853 234.471C196.734 236.612 194.353 237.784 191.92 237.884C189.488 237.985 187.079 237.01 184.907 235.047L184.638 218.07Z" fill="#455A64"/>
<path d="M195.888 220.125C196.821 219.881 197.773 220.112 198.636 220.791C199.499 221.47 200.238 222.569 200.769 223.964C201.406 225.557 201.991 227.215 202.52 228.93C200.985 231.912 199.739 234.178 197.613 235.504L195.888 220.125Z" fill="#455A64"/>
<path d="M184.638 218.071C184.638 218.071 182.092 218.634 181.108 222.52C180.124 226.406 179.895 227.615 179.895 227.615C181.207 230.456 182.886 233.814 184.94 235.07C184.94 235.07 185.405 225.279 185.464 222.52C185.536 219.538 185.602 217.988 184.638 218.071Z" fill="#455A64"/>
<path d="M186.96 193.182C187.601 191.712 188.419 190.518 189.352 189.689C190.285 188.86 191.31 188.417 192.352 188.392C193.248 188.391 194.137 188.678 194.976 189.237C195.86 189.612 196.641 190.535 197.18 191.843C197.849 193.381 198.287 195.2 198.453 197.126C198.607 199.098 198.66 201.09 198.611 203.078C198.557 205.081 198.196 207.019 197.567 208.678L194.74 209.547C193.181 209.77 191.613 209.62 190.076 209.101C188.522 208.567 187.15 206.955 186.258 204.616C185.123 201.317 185.595 196.187 186.96 193.182Z" fill="#263238"/>
<path d="M184.231 207.798C184.26 207.225 184.361 206.672 184.527 206.18C184.693 205.688 184.919 205.27 185.189 204.957C185.465 204.66 185.786 204.528 186.107 204.578C186.427 204.629 186.731 204.86 186.973 205.239L187.419 206.178C187.763 206.463 188.049 206.932 188.238 207.521C188.426 208.11 188.506 208.79 188.469 209.465C188.42 210.141 188.262 210.777 188.016 211.296C187.769 211.815 187.443 212.194 187.078 212.388C186.713 212.574 186.328 212.588 185.959 212.429C185.59 212.271 185.25 211.946 184.972 211.484C184.699 211.012 184.491 210.435 184.362 209.795C184.234 209.156 184.189 208.473 184.231 207.798Z" fill="#263238"/>
<path d="M184.789 211.25C184.683 210.952 184.63 210.604 184.638 210.252C184.732 209.397 184.96 208.608 185.294 207.974C185.61 207.309 185.996 206.759 186.429 206.354C186.757 206.037 186.986 205.92 186.98 205.884C186.77 205.912 186.567 206.02 186.383 206.201C185.92 206.569 185.512 207.124 185.189 207.821C185.008 208.175 184.853 208.57 184.73 208.995C184.622 209.359 184.56 209.759 184.546 210.169C184.543 210.452 184.586 210.729 184.671 210.968C184.73 211.203 184.789 211.32 184.789 211.25Z" fill="#455A64"/>
<path d="M194.714 219.221V214.525C194.714 214.525 197.016 214.067 197.659 208.784C197.962 205.29 198.08 201.752 198.014 198.218C198.014 195.013 196.472 190.646 194.255 190.634L193.271 190.423L189.499 193.099C189.237 193.125 188.989 193.325 188.805 193.659C188.621 193.993 188.513 194.438 188.502 194.907L188.39 217.46L190.115 221.792C190.431 222.557 190.873 223.126 191.379 223.419C191.884 223.712 192.429 223.714 192.935 223.425C193.442 223.137 193.885 222.571 194.203 221.809C194.521 221.046 194.697 220.125 194.707 219.174L194.714 219.221Z" fill="#FFBE9D"/>
<path d="M193.212 207.563C193.232 207.292 193.309 207.044 193.428 206.871C193.536 206.709 193.67 206.613 193.811 206.599C193.951 206.584 194.091 206.65 194.209 206.788C194.329 206.957 194.423 207.178 194.481 207.432C194.538 207.685 194.558 207.961 194.537 208.232C194.471 208.396 194.387 208.532 194.29 208.633C194.192 208.735 194.084 208.798 193.973 208.819H193.868C193.781 208.823 193.694 208.796 193.613 208.74C193.532 208.684 193.458 208.599 193.395 208.491C193.329 208.369 193.278 208.223 193.247 208.063C193.215 207.903 193.203 207.732 193.212 207.563Z" fill="#EB996E"/>
<path d="M196.643 201.928C196.639 202.106 196.597 202.275 196.524 202.398C196.452 202.521 196.355 202.589 196.256 202.585C196.206 202.587 196.158 202.571 196.112 202.539C196.066 202.507 196.025 202.459 195.989 202.398C195.954 202.337 195.926 202.264 195.906 202.183C195.886 202.102 195.876 202.016 195.875 201.928C195.88 201.748 195.924 201.579 195.997 201.457C196.071 201.334 196.168 201.267 196.269 201.27C196.317 201.269 196.366 201.285 196.411 201.317C196.457 201.349 196.498 201.398 196.533 201.459C196.567 201.52 196.595 201.593 196.614 201.674C196.633 201.754 196.643 201.841 196.643 201.928Z" fill="#263238"/>
<path d="M197.272 200.237C197.22 200.32 196.938 199.909 196.531 199.873C196.124 199.838 195.803 200.179 195.763 200.085C195.724 199.991 195.796 199.885 195.934 199.721C196.12 199.523 196.335 199.428 196.551 199.451C196.764 199.466 196.97 199.606 197.134 199.85C197.253 200.038 197.292 200.202 197.272 200.237Z" fill="#263238"/>
<path d="M194.681 205.802C194.896 205.712 195.116 205.665 195.337 205.661C195.442 205.661 195.547 205.661 195.567 205.497C195.581 205.304 195.563 205.107 195.514 204.933L195.245 203.478C194.995 202.235 194.799 200.96 194.661 199.662C194.968 200.865 195.22 202.109 195.416 203.384C195.508 203.889 195.586 204.382 195.672 204.851C195.727 205.085 195.738 205.344 195.704 205.591C195.665 205.717 195.599 205.81 195.521 205.849C195.462 205.86 195.403 205.86 195.344 205.849C195.123 205.887 194.9 205.871 194.681 205.802Z" fill="#263238"/>
<path d="M194.701 214.537C193.292 214.424 191.929 213.61 190.765 212.189C190.765 212.189 191.716 215.981 194.701 215.781V214.537Z" fill="#EB996E"/>
<path d="M193.454 206.201C193.527 206.201 193.5 207 193.868 207.598C194.235 208.197 194.707 208.162 194.707 208.268C194.707 208.373 194.596 208.42 194.399 208.408C194.137 208.387 193.886 208.205 193.691 207.892C193.506 207.587 193.393 207.167 193.376 206.718C193.369 206.377 193.428 206.19 193.454 206.201Z" fill="#263238"/>
<path d="M197.187 197.467C197.115 197.643 196.8 197.467 196.433 197.467C196.065 197.467 195.777 197.631 195.678 197.467C195.58 197.302 195.678 197.208 195.823 197.044C196.003 196.84 196.212 196.731 196.426 196.727C196.641 196.717 196.853 196.819 197.036 197.021C197.174 197.232 197.22 197.385 197.187 197.467Z" fill="#263238"/>
<path d="M192.129 201.928C192.127 202.108 192.165 202.282 192.233 202.413C192.302 202.545 192.396 202.623 192.497 202.632C192.545 202.64 192.595 202.631 192.641 202.604C192.688 202.578 192.731 202.535 192.769 202.478C192.806 202.421 192.836 202.352 192.858 202.273C192.88 202.195 192.893 202.109 192.897 202.022C192.897 201.844 192.859 201.673 192.79 201.544C192.722 201.415 192.629 201.338 192.529 201.329C192.481 201.32 192.432 201.328 192.385 201.353C192.339 201.378 192.295 201.42 192.258 201.476C192.22 201.532 192.19 201.6 192.168 201.678C192.146 201.756 192.132 201.841 192.129 201.928Z" fill="#263238"/>
<path d="M191.631 199.979C191.677 200.073 191.972 199.697 192.385 199.709C192.798 199.721 193.094 200.097 193.14 200.014C193.185 199.932 193.139 199.815 192.982 199.639C192.807 199.409 192.596 199.286 192.379 199.287C192.166 199.275 191.956 199.386 191.782 199.604C191.65 199.78 191.604 199.932 191.631 199.979Z" fill="#263238"/>
<path d="M191.394 198.406C191.473 198.582 191.795 198.406 192.175 198.406C192.556 198.406 192.877 198.547 192.956 198.406C193.034 198.265 192.956 198.148 192.798 197.983C192.607 197.783 192.39 197.678 192.169 197.678C191.947 197.678 191.73 197.783 191.539 197.983C191.401 198.148 191.355 198.312 191.394 198.406Z" fill="#263238"/>
<path d="M189 203.912C189 203.513 188.79 202.55 188.567 202.468C187.99 202.245 186.934 202.233 186.842 204.886C186.717 208.514 188.81 207.986 188.81 207.88C188.81 207.775 188.961 205.274 189 203.912Z" fill="#FFBE9D"/>
<path d="M188.272 206.495C188.272 206.495 188.239 206.495 188.174 206.577C188.132 206.609 188.087 206.625 188.042 206.625C187.997 206.625 187.953 206.609 187.911 206.577C187.784 206.414 187.684 206.193 187.62 205.937C187.557 205.681 187.533 205.399 187.55 205.121C187.558 204.811 187.603 204.506 187.682 204.229C187.705 204.118 187.743 204.019 187.792 203.94C187.841 203.86 187.9 203.802 187.964 203.771C188.005 203.755 188.049 203.766 188.086 203.803C188.123 203.84 188.152 203.899 188.167 203.971C188.172 204.029 188.172 204.088 188.167 204.147C188.167 204.147 188.213 204.147 188.2 203.947C188.192 203.856 188.166 203.774 188.128 203.712C188.103 203.669 188.073 203.636 188.04 203.616C188.007 203.595 187.972 203.588 187.937 203.595C187.854 203.614 187.774 203.672 187.706 203.763C187.638 203.853 187.585 203.973 187.55 204.112C187.453 204.416 187.399 204.759 187.393 205.11C187.371 205.432 187.402 205.76 187.484 206.05C187.566 206.341 187.694 206.581 187.852 206.741C187.906 206.774 187.963 206.785 188.02 206.775C188.076 206.765 188.131 206.734 188.18 206.683C188.272 206.624 188.272 206.507 188.272 206.495Z" fill="#EB996E"/>
<path d="M188.488 202.48L189 203.431C191.231 199.627 195.593 190.082 195.35 190.646C194.332 189.974 193.237 189.764 192.162 190.035C190.502 190.54 187.36 192.019 187.406 195.506C187.504 197.937 187.872 200.307 188.488 202.48Z" fill="#263238"/>
<path d="M185.536 201.681C185.536 201.681 185.536 201.599 185.536 201.47C185.575 201.273 185.621 201.081 185.674 200.895C185.885 200.222 186.176 199.641 186.527 199.193C187.047 198.529 187.626 198.029 188.239 197.713C188.895 197.326 189.682 197.021 190.437 196.445C191.727 195.47 192.893 194.032 193.861 192.219C194.153 191.668 194.426 191.088 194.681 190.482L194.884 189.977C194.907 189.916 194.933 189.861 194.963 189.812L194.904 190C194.858 190.118 194.799 190.305 194.714 190.528C194.469 191.154 194.202 191.75 193.914 192.313C193.482 193.143 193.008 193.898 192.497 194.567C191.871 195.39 191.193 196.076 190.476 196.61C189.753 197.106 189.015 197.529 188.265 197.878C187.661 198.18 187.089 198.66 186.573 199.298C186.225 199.727 185.932 200.283 185.714 200.93C185.644 201.172 185.585 201.424 185.536 201.681Z" fill="#455A64"/>
<path d="M186.127 202.245C186.122 201.976 186.149 201.708 186.206 201.458C186.357 200.763 186.622 200.166 186.967 199.744C187.483 199.154 188.061 198.755 188.666 198.57C189.39 198.323 190.096 197.929 190.771 197.396C191.442 196.85 192.073 196.156 192.647 195.33C193.124 194.652 193.564 193.893 193.959 193.064C194.22 192.507 194.459 191.919 194.675 191.303C194.747 191.104 194.806 190.928 194.845 190.799C194.865 190.735 194.89 190.676 194.917 190.622C194.903 190.688 194.886 190.751 194.865 190.81L194.707 191.339C194.506 191.977 194.273 192.582 194.012 193.147C193.624 194.013 193.184 194.801 192.7 195.495C192.12 196.338 191.483 197.048 190.804 197.608C190.121 198.145 189.406 198.539 188.672 198.782C188.078 198.981 187.511 199.379 186.999 199.956C186.659 200.352 186.392 200.92 186.232 201.588C186.186 201.801 186.151 202.021 186.127 202.245Z" fill="#455A64"/>
<path d="M184.939 235.047C184.843 232.733 184.843 230.41 184.939 228.097C185.027 230.411 185.027 232.733 184.939 235.047Z" fill="#263238"/>
<path d="M198.86 234.553C198.843 234.163 198.843 233.77 198.86 233.379C198.899 232.4 198.879 231.416 198.801 230.444C198.699 229.474 198.54 228.526 198.328 227.615C198.229 227.238 198.15 226.845 198.092 226.441C198.221 226.784 198.328 227.15 198.414 227.533C198.657 228.438 198.831 229.398 198.932 230.386C199.01 231.379 199.01 232.386 198.932 233.379C198.936 233.775 198.911 234.169 198.86 234.553Z" fill="#263238"/>
<path d="M269.668 244.861H219.517C218.323 244.858 217.177 244.007 216.332 242.495C215.488 240.984 215.012 238.934 215.011 236.796V199.11L209.48 190.329H269.668C270.264 190.321 270.854 190.524 271.405 190.927C271.956 191.33 272.457 191.924 272.879 192.674C273.301 193.425 273.636 194.319 273.864 195.302C274.092 196.286 274.209 197.341 274.208 198.406V236.796C274.207 237.859 274.089 238.912 273.86 239.894C273.631 240.876 273.296 241.767 272.874 242.516C272.453 243.266 271.952 243.859 271.402 244.261C270.852 244.663 270.263 244.867 269.668 244.861Z" fill="#EBEBEB"/>
<path d="M266.231 250.966C264.452 251.268 262.664 251.37 260.878 251.271C259.094 251.37 257.308 251.268 255.532 250.966C257.308 250.664 259.094 250.562 260.878 250.661C262.664 250.562 264.452 250.664 266.231 250.966Z" fill="#E0E0E0"/>
<path d="M268.442 251.717C268.42 251.717 268.398 251.708 268.377 251.692C268.357 251.676 268.339 251.653 268.324 251.623L267.287 249.686C267.257 249.631 267.24 249.558 267.24 249.481C267.24 249.404 267.257 249.33 267.287 249.275C267.302 249.247 267.32 249.225 267.339 249.21C267.359 249.194 267.38 249.186 267.402 249.186C267.423 249.186 267.445 249.194 267.465 249.21C267.484 249.225 267.502 249.247 267.517 249.275L268.435 250.989L270.449 247.327C270.464 247.298 270.482 247.276 270.501 247.261C270.521 247.246 270.542 247.238 270.564 247.238C270.585 247.238 270.607 247.246 270.626 247.261C270.646 247.276 270.664 247.298 270.679 247.327C270.709 247.381 270.726 247.455 270.726 247.532C270.726 247.609 270.709 247.683 270.679 247.737L268.547 251.623C268.518 251.674 268.481 251.707 268.442 251.717Z" fill="#DF33A8"/>
<path d="M269.918 251.659H269.727C269.684 251.659 269.642 251.628 269.612 251.573C269.581 251.518 269.563 251.443 269.563 251.365C269.568 251.288 269.588 251.216 269.619 251.163C269.65 251.109 269.691 251.077 269.734 251.072H269.852L271.932 247.28C271.947 247.251 271.965 247.229 271.986 247.213C272.006 247.198 272.028 247.19 272.05 247.19C272.072 247.19 272.094 247.198 272.114 247.213C272.134 247.229 272.153 247.251 272.168 247.28C272.198 247.334 272.215 247.408 272.215 247.485C272.215 247.562 272.198 247.636 272.168 247.69L270.036 251.565C270.021 251.595 270.003 251.619 269.983 251.635C269.962 251.652 269.94 251.66 269.918 251.659Z" fill="#DF33A8"/>
<path d="M266.231 398.503C264.452 398.805 262.664 398.907 260.878 398.808C259.094 398.907 257.308 398.805 255.532 398.503C257.308 398.2 259.094 398.098 260.878 398.197C262.664 398.098 264.452 398.2 266.231 398.503Z" fill="#E0E0E0"/>
<path d="M268.442 399.254C268.416 399.259 268.391 399.252 268.367 399.236C268.343 399.22 268.321 399.194 268.304 399.16L267.267 397.223C267.249 397.197 267.234 397.164 267.224 397.126C267.213 397.089 267.207 397.048 267.206 397.006C267.205 396.964 267.209 396.922 267.218 396.883C267.227 396.844 267.24 396.809 267.257 396.78C267.274 396.752 267.295 396.73 267.317 396.716C267.339 396.702 267.363 396.698 267.386 396.702C267.409 396.706 267.432 396.719 267.452 396.74C267.473 396.761 267.49 396.79 267.504 396.824L268.422 398.538L270.436 394.875C270.451 394.847 270.468 394.824 270.488 394.809C270.508 394.794 270.529 394.786 270.551 394.786C270.572 394.786 270.594 394.794 270.613 394.809C270.633 394.824 270.651 394.847 270.666 394.875C270.696 394.93 270.712 395.003 270.712 395.08C270.712 395.157 270.696 395.231 270.666 395.286L268.56 399.16C268.528 399.215 268.486 399.248 268.442 399.254Z" fill="#DF33A8"/>
<path d="M269.918 399.16H269.727C269.683 399.157 269.642 399.124 269.611 399.067C269.581 399.01 269.563 398.934 269.563 398.855C269.563 398.816 269.568 398.777 269.577 398.741C269.585 398.705 269.598 398.673 269.614 398.647C269.63 398.62 269.649 398.6 269.67 398.587C269.69 398.575 269.712 398.57 269.734 398.573H269.852L271.932 394.781C271.947 394.753 271.965 394.73 271.986 394.715C272.006 394.699 272.028 394.691 272.05 394.691C272.072 394.691 272.094 394.699 272.114 394.715C272.134 394.73 272.153 394.753 272.168 394.781C272.198 394.836 272.215 394.91 272.215 394.986C272.215 395.063 272.198 395.137 272.168 395.192L270.036 399.066C270.021 399.096 270.003 399.121 269.983 399.137C269.962 399.153 269.94 399.161 269.918 399.16Z" fill="#DF33A8"/>
<path d="M269.026 201.118C269.026 201.282 258.077 201.423 244.57 201.423C231.063 201.423 220.121 201.282 220.121 201.118C220.121 200.953 231.063 200.813 244.57 200.813C258.077 200.813 269.026 200.942 269.026 201.118Z" fill="white"/>
<path d="M269.026 207.54C269.026 207.716 258.077 207.845 244.57 207.845C231.063 207.845 220.121 207.716 220.121 207.54C220.121 207.364 231.063 207.234 244.57 207.234C258.077 207.234 269.026 207.375 269.026 207.54Z" fill="white"/>
<path d="M269.026 213.973C269.026 214.138 258.077 214.279 244.57 214.279C231.063 214.279 220.121 214.138 220.121 213.973C220.121 213.809 231.063 213.668 244.57 213.668C258.077 213.668 269.026 213.809 269.026 213.973Z" fill="white"/>
<path d="M191.513 401.625C199.639 401.625 206.227 389.862 206.227 375.351C206.227 360.841 199.639 349.077 191.513 349.077C183.386 349.077 176.799 360.841 176.799 375.351C176.799 389.862 183.386 401.625 191.513 401.625Z" fill="#E0E0E0"/>
<path d="M184.638 381.926L188.495 381.339L197.902 384.18L199.011 396.812L198.853 398.279C196.735 400.423 194.353 401.597 191.92 401.697C189.487 401.798 187.078 400.821 184.907 398.855L184.638 381.89" fill="#455A64"/>
<path d="M195.888 383.968C196.821 383.727 197.773 383.959 198.635 384.638C199.498 385.316 200.237 386.415 200.769 387.807C201.407 389.403 201.992 391.065 202.52 392.785C200.985 395.767 199.739 398.033 197.613 399.348L195.888 383.968Z" fill="#455A64"/>
<path d="M184.638 381.926C184.638 381.926 182.092 382.477 181.108 386.363C180.124 390.249 179.895 391.47 179.895 391.47C181.207 394.3 182.886 397.657 184.94 398.913C184.94 398.913 185.405 389.134 185.464 386.363C185.536 383.334 185.602 381.832 184.638 381.926Z" fill="#455A64"/>
<path d="M186.96 357.037C187.6 355.565 188.417 354.37 189.351 353.541C190.284 352.712 191.31 352.27 192.352 352.247C193.248 352.237 194.137 352.52 194.976 353.08C195.858 353.463 196.638 354.385 197.18 355.687C197.848 357.226 198.286 359.044 198.453 360.97C198.607 362.945 198.66 364.941 198.611 366.934C198.558 368.933 198.197 370.867 197.567 372.522L194.74 373.402C193.181 373.619 191.613 373.469 190.076 372.956C188.522 372.422 187.15 370.81 186.258 368.472C185.123 365.114 185.595 360.03 186.96 357.037Z" fill="#263238"/>
<path d="M184.231 371.7C184.259 371.127 184.36 370.573 184.526 370.081C184.692 369.588 184.919 369.17 185.189 368.859C185.464 368.559 185.785 368.423 186.106 368.472C186.426 368.52 186.73 368.751 186.973 369.129L187.419 370.08C187.764 370.363 188.051 370.832 188.239 371.422C188.427 372.012 188.507 372.692 188.469 373.367C188.415 374.04 188.256 374.672 188.01 375.189C187.764 375.707 187.441 376.088 187.078 376.29C186.713 376.473 186.327 376.485 185.958 376.324C185.59 376.164 185.25 375.837 184.972 375.375C184.699 374.905 184.491 374.329 184.362 373.692C184.234 373.055 184.189 372.373 184.231 371.7Z" fill="#263238"/>
<path d="M184.789 375.105C184.683 374.802 184.631 374.451 184.638 374.095C184.732 373.244 184.96 372.458 185.294 371.829C185.609 371.16 185.994 370.61 186.429 370.209C186.757 369.892 186.986 369.775 186.98 369.728C186.771 369.762 186.568 369.87 186.383 370.045C185.923 370.42 185.515 370.973 185.189 371.665C185.007 372.043 184.852 372.461 184.73 372.909C184.621 373.272 184.559 373.673 184.546 374.083C184.544 374.365 184.587 374.643 184.671 374.882C184.73 375.058 184.789 375.117 184.789 375.105Z" fill="#455A64"/>
<path d="M194.727 383.499V378.803C194.727 378.803 197.03 378.345 197.672 373.074C197.974 369.579 198.093 366.042 198.027 362.508C198.027 359.303 196.485 354.935 194.268 354.924L193.284 354.724L189.512 357.401C189.249 357.424 189.001 357.622 188.817 357.957C188.632 358.292 188.524 358.739 188.515 359.209L188.403 381.749L190.128 386.081C190.444 386.847 190.886 387.416 191.392 387.709C191.897 388.001 192.442 388.004 192.948 387.715C193.455 387.426 193.898 386.861 194.216 386.098C194.534 385.336 194.71 384.415 194.72 383.463L194.727 383.499Z" fill="#FFBE9D"/>
<path d="M193.212 371.418C193.232 371.147 193.309 370.899 193.428 370.726C193.536 370.564 193.67 370.469 193.811 370.454C193.951 370.439 194.091 370.505 194.209 370.644C194.329 370.812 194.423 371.034 194.481 371.287C194.538 371.541 194.558 371.817 194.537 372.088C194.471 372.249 194.386 372.384 194.289 372.483C194.192 372.582 194.084 372.644 193.973 372.663H193.868C193.692 372.656 193.524 372.535 193.395 372.322C193.328 372.207 193.277 372.065 193.245 371.909C193.213 371.752 193.202 371.584 193.212 371.418Z" fill="#EB996E"/>
<path d="M196.643 366.288C196.63 366.455 196.585 366.608 196.514 366.719C196.443 366.83 196.353 366.891 196.259 366.891C196.165 366.891 196.074 366.83 196.004 366.719C195.933 366.608 195.887 366.455 195.875 366.288C195.88 366.108 195.924 365.939 195.997 365.817C196.071 365.694 196.168 365.627 196.269 365.631C196.317 365.629 196.366 365.645 196.411 365.677C196.457 365.71 196.498 365.758 196.533 365.819C196.567 365.88 196.595 365.953 196.614 366.034C196.633 366.114 196.643 366.201 196.643 366.288Z" fill="#263238"/>
<path d="M197.272 364.539C197.22 364.621 196.938 364.21 196.531 364.175C196.124 364.139 195.803 364.468 195.763 364.374C195.724 364.28 195.796 364.175 195.934 364.022C196.117 363.813 196.334 363.718 196.551 363.752C196.764 363.767 196.97 363.907 197.134 364.151C197.253 364.339 197.292 364.503 197.272 364.539Z" fill="#263238"/>
<path d="M194.681 370.103C194.896 370.012 195.116 369.961 195.337 369.951C195.442 369.951 195.547 369.951 195.567 369.786C195.581 369.593 195.563 369.397 195.514 369.223C195.429 368.765 195.337 368.284 195.245 367.767C194.996 366.528 194.801 365.256 194.661 363.963C194.969 365.161 195.221 366.402 195.416 367.673C195.508 368.19 195.586 368.671 195.672 369.141C195.727 369.374 195.738 369.634 195.704 369.88C195.687 369.945 195.661 370.002 195.629 370.047C195.597 370.092 195.56 370.123 195.521 370.139C195.462 370.155 195.402 370.155 195.344 370.139C195.123 370.181 194.9 370.169 194.681 370.103Z" fill="#263238"/>
<path d="M194.701 378.826C193.296 378.728 191.934 377.936 190.765 376.537C190.765 376.537 191.716 380.329 194.701 380.129V378.826Z" fill="#EB996E"/>
<path d="M193.454 370.491C193.527 370.491 193.5 371.289 193.868 371.9C194.235 372.51 194.707 372.463 194.707 372.569C194.707 372.674 194.596 372.71 194.399 372.71C194.135 372.689 193.884 372.502 193.691 372.181C193.503 371.879 193.39 371.458 193.376 371.007C193.369 370.679 193.428 370.491 193.454 370.491Z" fill="#263238"/>
<path d="M197.187 361.768C197.115 361.944 196.8 361.768 196.433 361.768C196.065 361.768 195.777 361.932 195.678 361.768C195.58 361.604 195.678 361.51 195.823 361.346C196.002 361.137 196.212 361.026 196.426 361.029C196.641 361.013 196.854 361.115 197.036 361.322C197.174 361.51 197.22 361.686 197.187 361.768Z" fill="#263238"/>
<path d="M192.129 366.194C192.127 366.373 192.165 366.545 192.234 366.675C192.302 366.805 192.397 366.881 192.497 366.887C192.545 366.896 192.594 366.889 192.641 366.863C192.687 366.838 192.731 366.796 192.768 366.74C192.806 366.684 192.836 366.616 192.858 366.538C192.88 366.46 192.893 366.375 192.897 366.288C192.899 366.108 192.861 365.934 192.793 365.803C192.724 365.671 192.63 365.593 192.529 365.584C192.481 365.576 192.431 365.585 192.385 365.612C192.338 365.638 192.295 365.681 192.257 365.738C192.22 365.795 192.19 365.865 192.168 365.943C192.146 366.021 192.133 366.107 192.129 366.194Z" fill="#263238"/>
<path d="M191.631 364.269C191.677 364.363 191.972 363.987 192.385 364.01C192.798 364.034 193.094 364.398 193.14 364.304C193.185 364.21 193.139 364.104 192.982 363.928C192.806 363.704 192.595 363.581 192.379 363.576C192.165 363.573 191.957 363.688 191.782 363.905C191.65 364.069 191.604 364.233 191.631 364.269Z" fill="#263238"/>
<path d="M191.394 362.695C191.473 362.86 191.795 362.695 192.175 362.695C192.556 362.695 192.877 362.825 192.956 362.695C193.034 362.566 192.956 362.449 192.798 362.284C192.607 362.084 192.39 361.979 192.169 361.979C191.947 361.979 191.73 362.084 191.539 362.284C191.401 362.437 191.355 362.613 191.394 362.695Z" fill="#263238"/>
<path d="M189 367.755C189 367.356 188.79 366.405 188.567 366.323C187.99 366.1 186.934 366.077 186.842 368.73C186.717 372.357 188.81 371.841 188.81 371.735C188.81 371.63 188.961 369.129 189 367.755Z" fill="#FFBE9D"/>
<path d="M188.272 370.35C188.272 370.35 188.239 370.35 188.174 370.432C188.089 370.49 187.996 370.49 187.911 370.432C187.785 370.271 187.684 370.052 187.621 369.798C187.558 369.544 187.533 369.265 187.55 368.988C187.557 368.677 187.602 368.373 187.682 368.096C187.705 367.985 187.743 367.886 187.792 367.807C187.841 367.727 187.9 367.669 187.964 367.638C188.004 367.624 188.047 367.634 188.084 367.668C188.121 367.703 188.15 367.758 188.167 367.826C188.173 367.888 188.173 367.952 188.167 368.014C188.167 368.014 188.213 367.955 188.2 367.802C188.19 367.713 188.165 367.63 188.128 367.568C188.101 367.528 188.071 367.498 188.038 367.48C188.006 367.462 187.971 367.456 187.937 367.462C187.853 367.479 187.773 367.536 187.705 367.627C187.637 367.717 187.584 367.839 187.55 367.979C187.452 368.283 187.398 368.626 187.393 368.976C187.371 369.298 187.403 369.623 187.485 369.911C187.567 370.2 187.694 370.438 187.852 370.597C187.903 370.641 187.959 370.664 188.016 370.664C188.073 370.664 188.129 370.641 188.18 370.597C188.272 370.432 188.272 370.35 188.272 370.35Z" fill="#EB996E"/>
<path d="M188.488 366.288L189 367.251C191.231 363.435 195.593 353.891 195.35 354.466C194.333 353.785 193.237 353.571 192.162 353.844C190.502 354.349 187.36 355.828 187.406 359.326C187.504 361.753 187.872 364.12 188.488 366.288Z" fill="#263238"/>
<path d="M185.536 365.525C185.536 365.525 185.536 365.455 185.536 365.314C185.577 365.121 185.623 364.933 185.674 364.75C185.886 364.075 186.177 363.491 186.527 363.036C187.058 362.379 187.648 361.89 188.272 361.592C188.928 361.193 189.715 360.888 190.47 360.312C191.18 359.785 191.854 359.111 192.477 358.305C192.986 357.648 193.46 356.909 193.894 356.098C194.261 355.393 194.55 354.783 194.714 354.36C194.793 354.149 194.865 353.985 194.917 353.855C194.97 353.726 194.989 353.679 194.996 353.691L194.937 353.879L194.747 354.395C194.505 355.025 194.238 355.622 193.946 356.18C193.515 357.014 193.041 357.773 192.529 358.446C191.9 359.245 191.219 359.907 190.502 360.418C189.741 360.993 188.967 361.299 188.292 361.686C187.688 361.984 187.116 362.46 186.599 363.095C186.251 363.527 185.958 364.088 185.74 364.738C185.663 364.993 185.595 365.256 185.536 365.525Z" fill="#455A64"/>
<path d="M186.127 366.1C186.122 365.827 186.149 365.555 186.206 365.302C186.356 364.608 186.621 364.014 186.966 363.6C187.483 363.009 188.061 362.61 188.666 362.426C189.389 362.173 190.095 361.779 190.771 361.252C191.442 360.706 192.073 360.011 192.647 359.185C193.438 358.053 194.116 356.692 194.655 355.158C194.727 354.947 194.786 354.783 194.825 354.642C194.847 354.583 194.871 354.528 194.898 354.478C194.884 354.543 194.866 354.606 194.845 354.665L194.688 355.194C194.486 355.832 194.253 356.437 193.992 357.002C193.605 357.868 193.165 358.656 192.68 359.35C192.101 360.193 191.464 360.899 190.784 361.451C190.1 361.983 189.385 362.377 188.652 362.625C188.057 362.813 187.488 363.213 186.98 363.799C186.636 364.188 186.368 364.758 186.212 365.431C186.172 365.649 186.143 365.873 186.127 366.1Z" fill="#455A64"/>
<path d="M184.939 398.89C184.843 396.58 184.843 394.261 184.939 391.951C185.027 394.262 185.027 396.58 184.939 398.89Z" fill="#263238"/>
<path d="M198.86 398.409C198.841 397.998 198.841 397.586 198.86 397.176C198.899 396.193 198.879 395.205 198.801 394.229C198.698 393.263 198.54 392.319 198.328 391.412C198.23 391.034 198.151 390.641 198.092 390.238C198.221 390.58 198.328 390.946 198.414 391.329C198.658 392.234 198.832 393.194 198.932 394.182C199.01 395.175 199.01 396.183 198.932 397.176C198.938 397.591 198.913 398.005 198.86 398.409Z" fill="#263238"/>
<path d="M269.668 390.801H219.517C218.321 390.798 217.175 389.946 216.33 388.431C215.485 386.917 215.011 384.864 215.011 382.724V362.954L209.48 354.172H269.668C270.863 354.176 272.008 355.026 272.853 356.538C273.698 358.05 274.173 360.1 274.175 362.238V382.724C274.175 384.864 273.701 386.917 272.856 388.431C272.011 389.946 270.864 390.798 269.668 390.801Z" fill="#EBEBEB"/>
<path d="M269.026 364.961C269.026 365.137 258.077 365.267 244.57 365.267C231.063 365.267 220.121 365.137 220.121 364.961C220.121 364.785 231.063 364.656 244.57 364.656C258.077 364.656 269.026 364.797 269.026 364.961Z" fill="white"/>
<path d="M269.026 371.395C269.026 371.559 258.077 371.7 244.57 371.7C231.063 371.7 220.121 371.559 220.121 371.395C220.121 371.231 231.063 371.09 244.57 371.09C258.077 371.09 269.026 371.231 269.026 371.395Z" fill="white"/>
<path d="M269.026 377.828C269.026 377.993 258.077 378.134 244.57 378.134C231.063 378.134 220.121 377.993 220.121 377.828C220.121 377.664 231.063 377.523 244.57 377.523C258.077 377.523 269.026 377.652 269.026 377.828Z" fill="white"/>
<path d="M269.026 220.407C269.026 220.571 258.077 220.712 244.57 220.712C231.063 220.712 220.121 220.571 220.121 220.407C220.121 220.242 231.063 220.101 244.57 220.101C258.077 220.101 269.026 220.231 269.026 220.407Z" fill="white"/>
<path d="M269.026 226.829C269.026 227.005 258.077 227.134 244.57 227.134C231.063 227.134 220.121 227.005 220.121 226.829C220.121 226.652 231.063 226.523 244.57 226.523C258.077 226.523 269.026 226.664 269.026 226.829Z" fill="white"/>
<path d="M269.026 234.553C269.026 234.729 258.077 234.859 244.57 234.859C231.063 234.859 220.121 234.729 220.121 234.553C220.121 234.377 231.063 234.248 244.57 234.248C258.077 234.248 269.026 234.389 269.026 234.553Z" fill="white"/>
<path d="M220.416 122.836C220.451 121.923 220.634 121.049 220.943 120.321C221.252 119.592 221.672 119.04 222.154 118.734C222.635 118.427 223.156 118.379 223.653 118.594C224.149 118.81 224.6 119.28 224.949 119.948L224.247 121.122C224.102 120.807 223.919 120.554 223.713 120.382C223.506 120.209 223.281 120.121 223.053 120.124C222.649 120.124 222.262 120.411 221.977 120.921C221.692 121.432 221.531 122.125 221.531 122.847C221.531 123.57 221.692 124.262 221.977 124.773C222.262 125.284 222.649 125.571 223.053 125.571C223.282 125.574 223.508 125.485 223.714 125.31C223.921 125.135 224.103 124.879 224.247 124.561L224.949 125.735C224.6 126.402 224.15 126.873 223.654 127.089C223.158 127.305 222.638 127.257 222.156 126.952C221.675 126.647 221.254 126.097 220.945 125.37C220.636 124.643 220.452 123.77 220.416 122.859V122.836Z" fill="#263238"/>
<path d="M229.311 123.34V127.085H228.288V123.634C228.288 122.577 228.012 122.096 227.547 122.096C227.081 122.096 226.674 122.66 226.674 123.857V127.085H225.611V118.081H226.674V121.239C226.828 120.974 227.01 120.768 227.21 120.633C227.409 120.498 227.622 120.436 227.835 120.452C228.043 120.437 228.251 120.504 228.443 120.647C228.635 120.79 228.808 121.007 228.948 121.282C229.089 121.557 229.194 121.884 229.257 122.24C229.32 122.595 229.338 122.971 229.311 123.34Z" fill="#263238"/>
<path d="M233.497 123.364V127.086H232.506V126.275C232.383 126.592 232.214 126.844 232.018 127.003C231.822 127.162 231.605 127.223 231.391 127.179C230.538 127.179 230.033 126.334 230.033 125.207C230.033 124.08 230.486 123.247 231.601 123.247H232.44C232.44 122.436 232.165 121.967 231.601 121.967C231.222 121.96 230.852 122.17 230.545 122.566L230.164 121.251C230.632 120.708 231.181 120.43 231.739 120.452C232.88 120.452 233.497 121.38 233.497 123.364ZM232.44 125.019V124.35H231.712C231.22 124.35 231.056 124.679 231.056 125.125C231.056 125.571 231.279 125.912 231.653 125.912C231.821 125.934 231.988 125.859 232.129 125.699C232.271 125.538 232.38 125.3 232.44 125.019Z" fill="#263238"/>
<path d="M236.816 126.792C236.557 127.083 236.255 127.226 235.95 127.203C235.77 127.247 235.586 127.218 235.414 127.117C235.241 127.016 235.083 126.846 234.952 126.62C234.821 126.393 234.721 126.117 234.659 125.811C234.596 125.506 234.574 125.179 234.592 124.855V122.166H234.028V120.711H234.592V119.114H235.648V120.711H236.56V122.166H235.648V124.831C235.64 124.943 235.646 125.057 235.666 125.164C235.686 125.271 235.718 125.369 235.761 125.451C235.805 125.533 235.858 125.597 235.916 125.638C235.975 125.679 236.038 125.696 236.101 125.688C236.255 125.698 236.406 125.611 236.527 125.442L236.816 126.792Z" fill="#263238"/>
<path d="M255.532 135.937C255.532 136.102 244.38 136.243 230.558 136.243C216.736 136.243 205.59 136.102 205.59 135.937C205.59 135.773 216.742 135.62 230.558 135.62C244.373 135.62 255.532 135.761 255.532 135.937Z" fill="#263238"/>
<path d="M277.659 122.836C278.3 122.836 278.82 121.905 278.82 120.758C278.82 119.61 278.3 118.68 277.659 118.68C277.017 118.68 276.497 119.61 276.497 120.758C276.497 121.905 277.017 122.836 277.659 122.836Z" fill="#263238"/>
<path d="M278.8 126.792C278.801 127.206 278.734 127.612 278.606 127.957C278.478 128.303 278.296 128.572 278.082 128.732C277.869 128.892 277.633 128.934 277.406 128.854C277.179 128.774 276.97 128.574 276.807 128.281C276.643 127.988 276.532 127.615 276.487 127.208C276.442 126.802 276.466 126.381 276.555 125.999C276.644 125.616 276.795 125.29 276.988 125.061C277.181 124.833 277.407 124.712 277.639 124.714C277.946 124.717 278.241 124.937 278.458 125.326C278.675 125.715 278.798 126.242 278.8 126.792Z" fill="#263238"/>
<path d="M278.8 132.885C278.801 133.299 278.734 133.705 278.606 134.05C278.478 134.396 278.296 134.665 278.082 134.825C277.869 134.985 277.633 135.027 277.406 134.947C277.179 134.867 276.97 134.667 276.807 134.374C276.643 134.081 276.532 133.708 276.487 133.302C276.442 132.895 276.466 132.474 276.555 132.092C276.644 131.709 276.795 131.383 276.988 131.154C277.181 130.926 277.407 130.805 277.639 130.807C277.947 130.807 278.242 131.026 278.46 131.416C278.678 131.805 278.8 132.334 278.8 132.885Z" fill="#263238"/>
<path d="M183.234 127.802C183.163 127.804 183.093 127.763 183.037 127.684L179.96 123.646C179.918 123.59 179.884 123.517 179.86 123.434C179.836 123.35 179.823 123.258 179.823 123.164C179.823 123.072 179.836 122.981 179.859 122.899C179.883 122.818 179.918 122.748 179.96 122.695L183.037 118.727C183.072 118.682 183.112 118.65 183.154 118.632C183.197 118.615 183.24 118.613 183.283 118.626C183.326 118.639 183.367 118.667 183.403 118.709C183.44 118.75 183.471 118.804 183.496 118.868C183.546 118.993 183.566 119.148 183.552 119.299C183.539 119.45 183.493 119.586 183.424 119.678L180.708 123.2L183.424 126.722C183.493 126.815 183.539 126.953 183.553 127.106C183.566 127.26 183.546 127.416 183.496 127.543C183.468 127.621 183.429 127.686 183.383 127.731C183.337 127.776 183.286 127.8 183.234 127.802Z" fill="#263238"/>
<path d="M263.522 325.198C271.648 325.198 278.236 313.435 278.236 298.924C278.236 284.413 271.648 272.65 263.522 272.65C255.395 272.65 248.808 284.413 248.808 298.924C248.808 313.435 255.395 325.198 263.522 325.198Z" fill="#E0E0E0"/>
<path d="M267.55 314.456H259.809C259.544 314.456 259.291 314.268 259.104 313.933C258.917 313.598 258.812 313.145 258.812 312.671C258.812 312.197 258.916 311.742 259.103 311.405C259.29 311.069 259.544 310.878 259.809 310.875H267.55C267.815 310.878 268.068 311.069 268.255 311.405C268.442 311.742 268.547 312.197 268.547 312.671C268.547 313.145 268.442 313.598 268.255 313.933C268.068 314.268 267.814 314.456 267.55 314.456Z" fill="#263238"/>
<path d="M264.119 281.842H263.436V287.994H264.119V281.842Z" fill="#263238"/>
<path d="M253.747 306.438C254.849 306.438 255.742 304.84 255.742 302.869C255.742 300.898 254.849 299.3 253.747 299.3C252.646 299.3 251.753 300.898 251.753 302.869C251.753 304.84 252.646 306.438 253.747 306.438Z" fill="#DF33A8"/>
<path d="M273.913 306.203C275.014 306.203 275.907 304.605 275.907 302.634C275.907 300.663 275.014 299.065 273.913 299.065C272.811 299.065 271.919 300.663 271.919 302.634C271.919 304.605 272.811 306.203 273.913 306.203Z" fill="#DF33A8"/>
<path d="M264.073 286.702C264.073 286.702 272.194 286.526 273.48 299.123C274.766 311.72 267.897 311.943 265.923 312.178C265.031 312.284 263.115 312.296 261.423 312.249C257.677 312.131 255.033 310.84 254.134 304.618C254.027 303.888 253.959 303.141 253.931 302.387C253.695 295.578 256.266 286.374 264.073 286.702Z" fill="#DF33A8"/>
<path d="M258.182 305.874L269.99 306.203C270.584 306.218 271.157 305.812 271.584 305.073C272.01 304.333 272.256 303.321 272.266 302.258C272.273 301.195 272.044 300.171 271.63 299.409C271.216 298.648 270.649 298.212 270.055 298.196L258.247 297.867C257.953 297.858 257.661 297.953 257.387 298.146C257.113 298.339 256.863 298.628 256.652 298.994C256.44 299.361 256.271 299.798 256.155 300.282C256.038 300.765 255.975 301.285 255.971 301.812C255.967 302.339 256.021 302.862 256.129 303.351C256.238 303.841 256.4 304.287 256.605 304.664C256.811 305.042 257.056 305.343 257.326 305.55C257.597 305.758 257.888 305.868 258.182 305.874Z" fill="#263238"/>
<path d="M267.536 301.823C267.554 301.99 267.589 302.148 267.641 302.289C267.693 302.431 267.759 302.552 267.837 302.647C267.915 302.742 268.003 302.808 268.096 302.842C268.188 302.876 268.283 302.877 268.376 302.845C268.476 302.827 268.573 302.772 268.66 302.683C268.747 302.594 268.823 302.474 268.883 302.33C268.943 302.186 268.985 302.021 269.007 301.845C269.03 301.67 269.031 301.489 269.012 301.312C268.993 301.136 268.953 300.969 268.896 300.822C268.838 300.674 268.764 300.55 268.679 300.457C268.593 300.363 268.497 300.303 268.398 300.28C268.298 300.256 268.197 300.27 268.101 300.321C268.008 300.353 267.921 300.418 267.842 300.511C267.764 300.604 267.697 300.723 267.644 300.863C267.592 301.002 267.556 301.159 267.537 301.324C267.518 301.489 267.518 301.659 267.536 301.823Z" fill="white"/>
<path d="M259.291 301.589C259.301 301.768 259.331 301.941 259.381 302.097C259.431 302.253 259.498 302.389 259.578 302.496C259.659 302.603 259.751 302.679 259.849 302.719C259.947 302.758 260.048 302.761 260.147 302.727C260.245 302.692 260.339 302.621 260.421 302.519C260.503 302.416 260.573 302.284 260.625 302.13C260.677 301.977 260.711 301.805 260.724 301.627C260.737 301.449 260.729 301.268 260.701 301.096C260.65 300.787 260.537 300.523 260.383 300.356C260.23 300.189 260.047 300.13 259.87 300.192C259.694 300.253 259.536 300.431 259.429 300.689C259.322 300.948 259.272 301.269 259.291 301.589Z" fill="white"/>
<path d="M264.899 281.76C264.901 282.158 264.836 282.547 264.713 282.879C264.591 283.21 264.416 283.469 264.211 283.623C264.007 283.777 263.781 283.818 263.563 283.742C263.345 283.666 263.144 283.476 262.987 283.195C262.829 282.915 262.722 282.557 262.678 282.168C262.634 281.778 262.656 281.374 262.741 281.006C262.825 280.639 262.969 280.325 263.154 280.103C263.338 279.882 263.555 279.764 263.778 279.764C264.074 279.764 264.358 279.974 264.568 280.348C264.779 280.722 264.898 281.23 264.899 281.76Z" fill="#DF33A8"/>
<path d="M265.47 301.237C265.47 301.237 265.516 301.331 265.542 301.542C265.563 301.842 265.547 302.146 265.496 302.434C265.424 302.88 265.289 303.284 265.103 303.608C264.875 304.015 264.576 304.268 264.256 304.324C263.937 304.372 263.617 304.223 263.351 303.902C263.141 303.646 262.967 303.304 262.846 302.904C262.768 302.634 262.724 302.338 262.715 302.035C262.715 301.824 262.715 301.706 262.754 301.706C262.794 301.706 262.82 302.152 263.036 302.704C263.163 303.01 263.321 303.269 263.502 303.467C263.721 303.701 263.976 303.807 264.23 303.772C264.475 303.716 264.703 303.528 264.886 303.232C265.052 302.987 265.184 302.678 265.273 302.328C265.444 301.718 265.418 301.237 265.47 301.237Z" fill="white"/>
<path d="M273.467 298.712C273.491 298.811 273.511 298.913 273.526 299.018C273.551 299.141 273.573 299.266 273.591 299.393C273.591 299.534 273.637 299.699 273.657 299.898C273.707 300.336 273.742 300.779 273.762 301.225C273.785 301.772 273.785 302.321 273.762 302.868C273.735 303.415 273.684 303.956 273.611 304.489C273.549 304.921 273.47 305.344 273.375 305.756C273.342 305.92 273.305 306.081 273.263 306.238C273.235 306.355 273.202 306.469 273.165 306.578L273.073 306.872C273.088 306.764 273.112 306.66 273.145 306.567L273.231 306.203C273.263 306.062 273.303 305.909 273.335 305.733C273.424 305.32 273.496 304.896 273.552 304.465C273.622 303.935 273.672 303.398 273.703 302.857C273.722 302.313 273.722 301.768 273.703 301.225C273.686 300.784 273.656 300.345 273.611 299.91C273.597 299.728 273.578 299.548 273.552 299.37C273.552 299.217 273.519 299.1 273.506 298.994C273.486 298.904 273.473 298.809 273.467 298.712Z" fill="#263238"/>
<path d="M254.226 298.783C254.198 298.884 254.176 298.99 254.161 299.1C254.161 299.194 254.121 299.323 254.095 299.464C254.069 299.605 254.049 299.781 254.029 299.969C253.979 300.406 253.946 300.85 253.931 301.295C253.908 301.842 253.908 302.392 253.931 302.939C253.957 303.485 254.008 304.027 254.082 304.559C254.143 304.996 254.222 305.423 254.318 305.839C254.351 306.015 254.397 306.167 254.43 306.308C254.462 306.449 254.502 306.567 254.528 306.661L254.62 306.942C254.603 306.836 254.578 306.733 254.548 306.637C254.548 306.543 254.495 306.426 254.462 306.285C254.43 306.144 254.39 305.991 254.357 305.815C254.269 305.398 254.197 304.97 254.141 304.536C254.07 304.006 254.02 303.469 253.99 302.927C253.971 302.388 253.971 301.847 253.99 301.307C254.006 300.862 254.037 300.419 254.082 299.981C254.096 299.814 254.115 299.649 254.141 299.487C254.141 299.335 254.174 299.206 254.187 299.112C254.2 299.018 254.226 298.783 254.226 298.783Z" fill="#263238"/>
<path d="M255.978 321.488C255.978 321.488 258.392 317.273 263.436 317.273C268.481 317.273 271.066 321.488 271.066 321.488C268.789 323.946 266.181 325.246 263.522 325.246C260.863 325.246 258.254 323.946 255.978 321.488Z" fill="#DF33A8"/>
<path d="M183.024 325.714H233.169C233.761 325.716 234.347 325.508 234.894 325.104C235.441 324.699 235.939 324.105 236.357 323.356C236.776 322.606 237.108 321.717 237.334 320.737C237.56 319.758 237.676 318.709 237.675 317.649V291.61L243.205 282.828H183.024C182.432 282.828 181.846 283.037 181.299 283.442C180.753 283.847 180.256 284.442 179.837 285.19C179.419 285.939 179.087 286.829 178.86 287.807C178.634 288.786 178.517 289.834 178.517 290.894V317.649C178.516 318.709 178.632 319.758 178.859 320.737C179.085 321.717 179.417 322.606 179.835 323.356C180.254 324.105 180.751 324.699 181.298 325.104C181.845 325.508 182.432 325.716 183.024 325.714Z" fill="#EBEBEB"/>
<path d="M230.912 295.555C230.912 295.731 220.587 295.86 207.847 295.86C195.108 295.86 184.782 295.731 184.782 295.555C184.782 295.378 195.108 295.249 207.847 295.249C220.587 295.249 230.912 295.39 230.912 295.555Z" fill="white"/>
<path d="M230.912 302.528C230.912 302.704 220.587 302.833 207.847 302.833C195.108 302.833 184.782 302.704 184.782 302.528C184.782 302.352 195.108 302.223 207.847 302.223C220.587 302.223 230.912 302.364 230.912 302.528Z" fill="white"/>
<path d="M230.912 309.502C230.912 309.666 220.587 309.807 207.847 309.807C195.108 309.807 184.782 309.666 184.782 309.502C184.782 309.337 195.108 309.196 207.847 309.196C220.587 309.196 230.912 309.337 230.912 309.502Z" fill="white"/>
<path d="M230.912 316.475C230.912 316.64 220.587 316.78 207.847 316.78C195.108 316.78 184.782 316.64 184.782 316.475C184.782 316.311 195.108 316.17 207.847 316.17C220.587 316.17 230.912 316.299 230.912 316.475Z" fill="white"/>
<path d="M263.522 471.103C271.648 471.103 278.236 459.339 278.236 444.829C278.236 430.318 271.648 418.554 263.522 418.554C255.395 418.554 248.808 430.318 248.808 444.829C248.808 459.339 255.395 471.103 263.522 471.103Z" fill="#E0E0E0"/>
<path d="M267.55 460.361H259.809C259.677 460.361 259.547 460.314 259.426 460.224C259.304 460.133 259.194 460.001 259.101 459.834C259.009 459.667 258.935 459.469 258.886 459.251C258.836 459.033 258.811 458.8 258.812 458.564C258.812 458.091 258.917 457.637 259.104 457.303C259.291 456.968 259.544 456.78 259.809 456.78H267.55C267.814 456.78 268.068 456.968 268.255 457.303C268.442 457.637 268.547 458.091 268.547 458.564C268.548 458.8 268.522 459.033 268.473 459.251C268.423 459.469 268.35 459.667 268.257 459.834C268.164 460.001 268.054 460.133 267.933 460.224C267.811 460.314 267.681 460.361 267.55 460.361Z" fill="#263238"/>
<path d="M264.119 427.747H263.436V433.899H264.119V427.747Z" fill="#263238"/>
<path d="M253.747 452.342C254.849 452.342 255.742 450.744 255.742 448.773C255.742 446.802 254.849 445.204 253.747 445.204C252.646 445.204 251.753 446.802 251.753 448.773C251.753 450.744 252.646 452.342 253.747 452.342Z" fill="#DF33A8"/>
<path d="M273.913 452.096C275.014 452.096 275.907 450.498 275.907 448.527C275.907 446.556 275.014 444.958 273.913 444.958C272.811 444.958 271.919 446.556 271.919 448.527C271.919 450.498 272.811 452.096 273.913 452.096Z" fill="#DF33A8"/>
<path d="M264.073 432.607C264.073 432.607 272.194 432.431 273.48 445.016C274.766 457.602 267.897 457.848 265.923 458.083C265.031 458.189 263.115 458.2 261.423 458.153C257.677 458.036 255.033 456.733 254.134 450.522C254.027 449.792 253.959 449.045 253.931 448.292C253.695 441.483 256.266 432.267 264.073 432.607Z" fill="#DF33A8"/>
<path d="M258.182 451.779L269.99 452.107C270.584 452.123 271.157 451.717 271.584 450.977C272.01 450.238 272.256 449.226 272.266 448.163C272.273 447.1 272.044 446.075 271.63 445.314C271.216 444.552 270.649 444.116 270.055 444.101L258.247 443.76C257.654 443.745 257.08 444.151 256.654 444.89C256.227 445.63 255.981 446.642 255.971 447.705C255.967 448.232 256.021 448.756 256.129 449.246C256.238 449.736 256.4 450.183 256.605 450.561C256.81 450.94 257.055 451.242 257.326 451.451C257.596 451.66 257.887 451.771 258.182 451.779Z" fill="#263238"/>
<path d="M267.536 447.728C267.552 447.896 267.587 448.056 267.637 448.199C267.688 448.343 267.753 448.467 267.831 448.565C267.908 448.664 267.995 448.733 268.088 448.771C268.18 448.809 268.276 448.814 268.37 448.785C268.463 448.756 268.552 448.695 268.633 448.605C268.713 448.515 268.782 448.397 268.837 448.258C268.892 448.12 268.931 447.963 268.952 447.798C268.973 447.633 268.976 447.461 268.96 447.294C268.95 447.115 268.919 446.942 268.869 446.786C268.82 446.63 268.753 446.494 268.672 446.387C268.592 446.28 268.499 446.204 268.401 446.164C268.304 446.125 268.202 446.122 268.104 446.156C268.005 446.191 267.912 446.262 267.829 446.364C267.747 446.467 267.678 446.599 267.625 446.753C267.573 446.906 267.54 447.078 267.527 447.256C267.513 447.434 267.521 447.615 267.55 447.787L267.536 447.728Z" fill="white"/>
<path d="M259.291 447.494C259.318 447.744 259.386 447.975 259.486 448.156C259.587 448.337 259.715 448.461 259.855 448.512C259.995 448.563 260.14 448.539 260.272 448.442C260.404 448.345 260.517 448.181 260.597 447.969C260.677 447.757 260.72 447.508 260.72 447.252C260.721 446.997 260.679 446.747 260.601 446.534C260.522 446.321 260.41 446.155 260.278 446.056C260.146 445.957 260.001 445.93 259.861 445.979C259.768 446.011 259.68 446.076 259.601 446.17C259.522 446.263 259.454 446.384 259.401 446.525C259.348 446.665 259.311 446.823 259.292 446.989C259.273 447.156 259.272 447.327 259.291 447.494Z" fill="white"/>
<path d="M264.899 427.618C264.899 428.015 264.834 428.403 264.71 428.733C264.587 429.063 264.412 429.32 264.207 429.472C264.002 429.624 263.776 429.664 263.559 429.587C263.341 429.509 263.141 429.318 262.984 429.037C262.827 428.756 262.721 428.399 262.677 428.009C262.634 427.62 262.656 427.216 262.741 426.849C262.826 426.483 262.97 426.169 263.154 425.948C263.339 425.728 263.556 425.61 263.778 425.61C264.075 425.61 264.36 425.822 264.571 426.198C264.781 426.575 264.899 427.085 264.899 427.618Z" fill="#DF33A8"/>
<path d="M265.47 447.129C265.47 447.129 265.516 447.235 265.542 447.446C265.563 447.746 265.547 448.05 265.496 448.339C265.423 448.783 265.287 449.187 265.103 449.513C264.875 449.919 264.576 450.172 264.256 450.229C263.937 450.276 263.617 450.127 263.351 449.806C263.141 449.551 262.967 449.209 262.846 448.808C262.769 448.538 262.724 448.242 262.715 447.939C262.715 447.728 262.715 447.611 262.754 447.611C262.794 447.611 262.82 448.057 263.036 448.597C263.16 448.909 263.319 449.173 263.502 449.372C263.723 449.598 263.976 449.704 264.23 449.677C264.475 449.621 264.703 449.433 264.886 449.137C265.049 448.887 265.18 448.579 265.273 448.233C265.444 447.599 265.418 447.141 265.47 447.129Z" fill="white"/>
<path d="M273.467 444.605C273.467 444.605 273.467 444.723 273.526 444.923C273.552 445.045 273.574 445.17 273.591 445.298C273.591 445.439 273.637 445.603 273.657 445.791C273.706 446.229 273.741 446.672 273.762 447.118C273.785 447.665 273.785 448.214 273.762 448.761C273.736 449.308 273.685 449.85 273.611 450.382C273.55 450.818 273.471 451.246 273.375 451.661C273.342 451.821 273.305 451.978 273.263 452.131C273.236 452.253 273.203 452.371 273.165 452.483L273.073 452.765C273.09 452.658 273.114 452.556 273.145 452.46C273.145 452.366 273.198 452.248 273.231 452.107C273.263 451.966 273.303 451.814 273.335 451.638C273.425 451.221 273.497 450.793 273.552 450.358C273.622 449.833 273.673 449.299 273.703 448.761C273.722 448.218 273.722 447.673 273.703 447.13C273.687 446.688 273.656 446.249 273.611 445.815C273.597 445.644 273.577 445.476 273.552 445.31C273.552 445.157 273.519 445.04 273.506 444.934C273.484 444.829 273.47 444.718 273.467 444.605Z" fill="#263238"/>
<path d="M254.226 444.688C254.198 444.789 254.176 444.895 254.161 445.005C254.161 445.099 254.121 445.228 254.095 445.369C254.069 445.51 254.049 445.686 254.029 445.874C253.979 446.311 253.946 446.754 253.931 447.2C253.908 447.747 253.908 448.297 253.931 448.844C253.958 449.39 254.008 449.932 254.082 450.464C254.143 450.9 254.222 451.328 254.318 451.744C254.351 451.92 254.397 452.072 254.43 452.213C254.462 452.354 254.502 452.471 254.528 452.565L254.62 452.847C254.604 452.74 254.58 452.637 254.548 452.542C254.548 452.448 254.495 452.331 254.462 452.19C254.43 452.049 254.39 451.896 254.357 451.708C254.269 451.295 254.197 450.871 254.141 450.44C254.07 449.911 254.02 449.374 253.99 448.832C253.971 448.293 253.971 447.751 253.99 447.212C254.006 446.767 254.037 446.324 254.082 445.885C254.096 445.719 254.115 445.554 254.141 445.392C254.141 445.24 254.174 445.11 254.187 445.016C254.2 444.923 254.226 444.688 254.226 444.688Z" fill="#263238"/>
<path d="M255.978 467.393C255.978 467.393 258.392 463.178 263.436 463.178C268.481 463.178 271.066 467.393 271.066 467.393C268.789 469.851 266.181 471.151 263.522 471.151C260.863 471.151 258.254 469.851 255.978 467.393Z" fill="#DF33A8"/>
<path d="M183.024 471.619H233.169C233.761 471.621 234.347 471.413 234.894 471.008C235.441 470.604 235.939 470.01 236.357 469.26C236.776 468.511 237.108 467.621 237.334 466.642C237.56 465.663 237.676 464.613 237.675 463.554V437.514L243.205 428.733H183.024C182.432 428.733 181.846 428.942 181.299 429.347C180.753 429.752 180.256 430.346 179.837 431.095C179.419 431.844 179.087 432.733 178.86 433.712C178.634 434.69 178.517 435.739 178.517 436.798V463.554C178.516 464.613 178.632 465.663 178.859 466.642C179.085 467.621 179.417 468.511 179.835 469.26C180.254 470.01 180.751 470.604 181.298 471.008C181.845 471.413 182.432 471.621 183.024 471.619Z" fill="#EBEBEB"/>
<path d="M183.024 512.345H233.169C233.761 512.345 234.348 512.136 234.895 511.73C235.442 511.324 235.939 510.729 236.358 509.979C236.776 509.229 237.108 508.338 237.334 507.358C237.56 506.378 237.676 505.328 237.675 504.268V495.639L243.205 486.858H183.024C182.432 486.858 181.846 487.066 181.299 487.472C180.753 487.877 180.256 488.471 179.837 489.22C179.419 489.969 179.087 490.858 178.86 491.837C178.634 492.815 178.517 493.864 178.517 494.923V504.315C178.522 506.448 179 508.49 179.844 509.995C180.689 511.5 181.832 512.345 183.024 512.345Z" fill="#EBEBEB"/>
<path d="M230.912 441.424C230.912 441.6 220.587 441.729 207.847 441.729C195.108 441.729 184.782 441.6 184.782 441.424C184.782 441.248 195.108 441.119 207.847 441.119C220.587 441.119 230.912 441.295 230.912 441.424Z" fill="white"/>
<path d="M230.912 448.468C230.912 448.632 220.587 448.773 207.847 448.773C195.108 448.773 184.782 448.632 184.782 448.468C184.782 448.304 195.108 448.163 207.847 448.163C220.587 448.163 230.912 448.268 230.912 448.468Z" fill="white"/>
<path d="M230.912 455.406C230.912 455.571 220.587 455.712 207.847 455.712C195.108 455.712 184.782 455.571 184.782 455.406C184.782 455.242 195.108 455.101 207.847 455.101C220.587 455.101 230.912 455.23 230.912 455.406Z" fill="white"/>
<path d="M230.912 462.38C230.912 462.544 220.587 462.685 207.847 462.685C195.108 462.685 184.782 462.544 184.782 462.38C184.782 462.215 195.108 462.074 207.847 462.074C220.587 462.074 230.912 462.204 230.912 462.38Z" fill="white"/>
<path d="M231.069 499.971C231.069 500.136 220.849 500.277 208.247 500.277C195.645 500.277 185.418 500.136 185.418 499.971C185.418 499.807 195.639 499.666 208.247 499.666C220.855 499.666 231.069 499.795 231.069 499.971Z" fill="white"/>
<path d="M63.2646 482.972C64.1482 483.353 64.9797 484.049 65.709 485.02C66.4384 485.99 67.0506 487.214 67.509 488.619C68.4157 491.446 68.9518 494.606 69.0768 497.858C69.4114 504.104 68.1978 510.995 66.689 516.642C63.2843 513.237 61.7034 505.665 61.0342 501.732C59.9781 495.522 60.1749 483.136 63.2646 482.948" fill="#455A64"/>
<path d="M71.2154 525.471C70.8088 523.807 70.6554 521.98 70.7706 520.176C70.8858 518.372 71.2656 516.655 71.8714 515.198C72.4948 513.764 73.2721 512.567 74.1575 511.678C75.043 510.789 76.0187 510.226 77.0275 510.021C77.4803 509.845 77.9488 509.846 78.4014 510.022C78.8541 510.198 79.2803 510.546 79.6515 511.042C79.9532 511.615 80.1635 512.323 80.2604 513.091C80.3573 513.859 80.3374 514.66 80.2026 515.409C79.9239 516.903 79.4307 518.239 78.7725 519.284C76.6142 523.017 74.1411 525.917 71.1498 525.471" fill="#455A64"/>
<path d="M69.7459 545.581C69.7072 545.154 69.6918 544.722 69.7 544.29C69.7 543.374 69.7 542.188 69.6475 540.768C69.5138 536.875 69.7354 532.969 70.3035 529.204C70.9134 525.428 72.0751 522.012 73.6688 519.307C74.1568 518.503 74.6963 517.806 75.276 517.229C75.4307 517.071 75.5906 516.93 75.7549 516.806C75.8091 516.747 75.8693 516.707 75.932 516.689C75.1679 517.51 74.4515 518.466 73.7934 519.542C72.2536 522.255 71.1248 525.624 70.5134 529.333C69.9489 533.057 69.6991 536.911 69.7721 540.768C69.7721 542.259 69.7721 543.456 69.7721 544.29C69.7811 544.721 69.7723 545.152 69.7459 545.581Z" fill="#263238"/>
<path d="M63.5795 492.434C63.6215 492.604 63.6544 492.781 63.6779 492.962C63.7435 493.362 63.8222 493.878 63.9141 494.512C64.1174 495.862 64.3995 497.823 64.7275 500.253C65.3835 505.113 66.2625 511.852 67.1285 519.319C67.9944 526.785 68.6897 533.595 69.1555 538.525C69.3851 540.991 69.5622 542.987 69.6803 544.395C69.7328 545.053 69.7721 545.569 69.8049 545.992C69.8154 546.179 69.8154 546.368 69.8049 546.555C69.771 546.375 69.7447 546.191 69.7262 546.004C69.6803 545.593 69.6278 545.076 69.5557 544.419C69.4048 542.998 69.2014 541.014 68.9521 538.608C68.4405 533.688 67.7189 526.868 66.8529 519.436C65.987 512.005 65.1473 505.231 64.5307 500.359C64.2224 498.011 63.9731 496.003 63.796 494.583C63.7173 493.937 63.6517 493.409 63.6057 493.009C63.5846 492.82 63.5758 492.627 63.5795 492.434Z" fill="#263238"/>
<path d="M66.6889 531.071C65.9 527.513 64.6499 524.342 63.0417 521.819C61.4335 519.297 59.5133 517.494 57.4393 516.56C56.3832 516.102 55.0712 516.043 54.4283 517.617C53.7854 519.19 54.2381 521.42 54.835 523.052C56.1112 526.408 57.9126 529.014 60.0131 530.545C62.1137 532.076 64.42 532.463 66.643 531.658" fill="#455A64"/>
<path d="M58.5939 522.113C58.816 522.162 59.0354 522.245 59.2499 522.359C59.5096 522.468 59.7658 522.601 60.0174 522.758C60.3061 522.946 60.6734 523.111 61.008 523.404C61.3426 523.698 61.769 523.979 62.1691 524.379C62.6084 524.777 63.0335 525.224 63.4418 525.717C64.3823 526.834 65.2474 528.142 66.0198 529.615C66.7773 531.108 67.4375 532.75 67.9878 534.51C68.2303 535.271 68.4493 536.055 68.6438 536.858C68.8118 537.564 68.9586 538.285 69.0834 539.018C69.2146 539.676 69.267 540.31 69.3458 540.85C69.4086 541.314 69.4568 541.785 69.4901 542.259C69.5302 542.646 69.5522 543.039 69.5557 543.433C69.4966 543.433 69.3917 541.719 68.8997 539.077C68.7698 538.363 68.6187 537.661 68.447 536.976C68.2525 536.172 68.0335 535.388 67.791 534.628C67.2346 532.907 66.5746 531.301 65.823 529.838C65.0607 528.397 64.2165 527.102 63.304 525.975C62.871 525.482 62.4643 525.001 62.0576 524.637C61.6901 524.263 61.3112 523.926 60.9227 523.627C59.5254 522.594 58.5742 522.207 58.5939 522.113Z" fill="#263238"/>
<path d="M79.4416 178.095L77.0144 164.535C80.4666 154.51 81.6985 142.536 80.4679 130.967C79.2373 119.398 75.6332 109.071 70.3641 102.017C65.095 94.9623 58.5419 91.6902 51.9931 92.8437C45.4444 93.9972 39.3735 99.4929 34.974 108.25C30.5744 117.008 28.1644 128.394 28.2177 140.17C28.2709 151.946 30.7836 163.261 35.2618 171.89C39.74 180.519 45.8597 185.838 52.4181 186.801C58.9764 187.765 65.499 184.303 70.7037 177.097L79.4416 178.095Z" fill="#FAFAFA"/>
<path d="M79.4416 178.096H78.8905L77.2243 177.943L70.6643 177.297C70.6542 177.298 70.6443 177.294 70.6351 177.287C70.6259 177.279 70.6176 177.269 70.6108 177.256C70.604 177.242 70.5988 177.227 70.5956 177.21C70.5924 177.193 70.5912 177.174 70.5921 177.157C70.5893 177.133 70.5893 177.109 70.5921 177.086L70.6971 177.274C66.1388 183.646 60.5335 187.149 54.7497 187.241C53.289 187.227 51.8309 187.019 50.3873 186.619C43.68 184.74 37.6388 178.291 33.5282 168.622C31.2388 163.178 29.6262 156.922 28.7984 150.272C27.8989 143.201 27.9348 135.853 28.9034 128.811C29.028 127.919 29.1592 127.015 29.2904 126.123C29.4216 125.231 29.6381 124.362 29.8086 123.481C29.9749 122.591 30.1676 121.717 30.3859 120.863C30.609 120.018 30.8386 119.173 31.0419 118.316C31.2676 117.459 31.5263 116.631 31.816 115.839L32.6491 113.397L33.6069 111.049L34.0923 109.875C34.2563 109.499 34.4466 109.159 34.6237 108.795C37.4605 102.957 41.0592 98.4648 45.1 95.7162C48.9467 93.0931 53.0774 92.0772 57.1769 92.746C61.029 93.4314 64.7494 95.628 68.0731 99.1795C73.9798 105.458 78.2881 115.606 80.0845 127.473C80.464 130.015 80.7359 132.606 80.8979 135.221C81.003 137.666 81.0271 140.12 80.9701 142.571C80.7187 150.379 79.3791 157.95 77.0734 164.595V164.489C77.8475 168.903 78.4379 172.308 78.8446 174.632C79.0414 175.806 79.1857 176.617 79.2907 177.215L79.435 178.084C79.435 178.084 79.3694 177.767 79.2579 177.18L78.779 174.586C78.3592 172.238 77.736 168.927 76.9357 164.571C76.9286 164.537 76.9286 164.5 76.9357 164.466C79.1979 157.836 80.5032 150.304 80.7339 142.547C80.7842 140.12 80.7536 137.689 80.6421 135.268C80.4782 132.675 80.2041 130.109 79.8221 127.59C78.415 118.455 75.4966 110.295 71.4503 104.183C67.404 98.0711 62.4191 94.2928 57.1507 93.3447C53.1028 92.6818 49.0238 93.6816 45.2246 96.268C41.2453 98.9931 37.7016 103.428 34.9058 109.182C34.7352 109.546 34.545 109.875 34.381 110.25L33.9021 111.424L32.9574 113.69L32.144 116.109C31.8554 116.898 31.5968 117.722 31.3699 118.574C31.1469 119.408 30.9238 120.253 30.7139 121.086C30.4999 121.928 30.3116 122.791 30.1498 123.669C29.9792 124.538 29.7758 125.395 29.6315 126.275C29.4872 127.156 29.3757 128.048 29.251 128.929C28.2998 135.862 28.2594 143.095 29.133 150.061C30.2697 159.208 32.9155 167.533 36.7274 173.958C40.5394 180.382 45.3417 184.609 50.512 186.091C51.9424 186.493 53.3872 186.709 54.835 186.736C56.1865 186.726 57.5355 186.526 58.8694 186.138C63.1676 184.884 67.2248 181.742 70.6774 176.992C70.6842 176.979 70.6923 176.969 70.7013 176.962C70.7104 176.955 70.7201 176.952 70.7299 176.952C70.7397 176.952 70.7495 176.955 70.7585 176.962C70.7675 176.969 70.7756 176.979 70.7824 176.992C70.792 177.016 70.7972 177.045 70.7972 177.074C70.7972 177.104 70.792 177.133 70.7824 177.157L70.7299 176.945L77.2112 177.744L78.8905 177.955L79.4416 178.096Z" fill="#263238"/>
<path d="M47.1926 139.87C47.1926 140.815 47.036 141.739 46.7427 142.525C46.4493 143.311 46.0323 143.923 45.5444 144.285C45.0566 144.646 44.5197 144.741 44.0018 144.557C43.4839 144.372 43.0082 143.917 42.6348 143.249C42.2614 142.581 42.0071 141.729 41.9041 140.802C41.8011 139.876 41.8539 138.915 42.056 138.042C42.2581 137.169 42.6003 136.422 43.0394 135.897C43.4784 135.372 43.9946 135.092 44.5227 135.092C45.2303 135.095 45.9084 135.6 46.4087 136.495C46.909 137.39 47.1909 138.604 47.1926 139.87Z" fill="#263238"/>
<path d="M57.8854 139.87C57.8854 140.815 57.7288 141.739 57.4355 142.525C57.1421 143.311 56.7251 143.923 56.2372 144.285C55.7494 144.646 55.2125 144.741 54.6946 144.557C54.1767 144.372 53.701 143.917 53.3276 143.249C52.9542 142.581 52.6999 141.729 52.5969 140.802C52.4939 139.876 52.5467 138.915 52.7488 138.042C52.9509 137.169 53.2931 136.422 53.7322 135.897C54.1712 135.372 54.6874 135.092 55.2155 135.092C55.9231 135.095 56.6012 135.6 57.1015 136.495C57.6018 137.39 57.8837 138.604 57.8854 139.87Z" fill="#263238"/>
<path d="M68.552 137.487C68.8152 138.306 68.937 139.245 68.9021 140.187C68.8671 141.13 68.6769 142.032 68.3555 142.781C68.0341 143.53 67.5959 144.092 67.0962 144.395C66.5965 144.699 66.0578 144.731 65.5481 144.487C65.0383 144.243 64.5804 143.734 64.2322 143.024C63.8839 142.315 63.6609 141.437 63.5914 140.5C63.5218 139.564 63.6089 138.612 63.8414 137.765C64.074 136.917 64.4417 136.212 64.8981 135.738C65.202 135.422 65.5378 135.217 65.8861 135.134C66.2345 135.051 66.5885 135.092 66.928 135.255C67.2674 135.417 67.5856 135.698 67.8643 136.081C68.143 136.464 68.3767 136.942 68.552 137.487Z" fill="#263238"/>
<path d="M69.6147 351.026L41.984 345.907L30.2809 298.372L21.1888 302.61C21.1888 302.61 27.9062 352.846 35.424 360.629C42.9417 368.413 68.6241 369.81 68.6241 369.81L69.6147 351.026Z" fill="#DF33A8"/>
<path d="M84.3037 375.203C88.7996 366.15 88.3435 352.289 83.285 344.243C78.2264 336.197 70.481 337.013 65.9851 346.066C61.4891 355.119 61.9452 368.98 67.0038 377.027C72.0623 385.073 79.8078 384.256 84.3037 375.203Z" fill="#263238"/>
<path d="M75.1448 382.583C72.3052 382.583 69.5534 380.821 67.3584 377.597C65.1633 374.373 63.6608 369.887 63.1069 364.903C62.5529 359.918 62.9817 354.745 64.3203 350.263C65.6589 345.781 67.8244 342.269 70.4479 340.324C73.0713 338.379 75.9904 338.123 78.7077 339.598C81.425 341.073 83.7725 344.189 85.3501 348.414C86.9277 352.64 87.6378 357.713 87.3595 362.77C87.0811 367.828 85.8315 372.556 83.8236 376.149C82.6865 378.195 81.3339 379.817 79.8442 380.922C78.3545 382.026 76.7572 382.591 75.1448 382.583ZM75.1448 338.722C72.3128 338.717 69.5674 340.469 67.3764 343.681C65.1854 346.892 63.6843 351.363 63.1289 356.333C62.5735 361.303 62.9981 366.463 64.3305 370.936C65.6628 375.408 67.8204 378.915 70.4357 380.859C73.0509 382.804 75.962 383.066 78.6729 381.6C81.3838 380.134 83.7268 377.031 85.3027 372.82C86.8786 368.609 87.59 363.55 87.3155 358.506C87.041 353.462 85.7977 348.744 83.7974 345.156C82.6645 343.113 81.3164 341.492 79.8311 340.388C78.3459 339.284 76.7531 338.718 75.1448 338.722Z" fill="#263238"/>
<path d="M39.5071 364.385C44.4426 362.264 47.4831 353.384 46.2982 344.552C45.1133 335.719 40.1517 330.277 35.2161 332.398C30.2805 334.519 27.24 343.398 28.425 352.231C29.6099 361.064 34.5715 366.505 39.5071 364.385Z" fill="#263238"/>
<path d="M30.3826 302.215C33.3159 296.966 33.3159 288.455 30.3826 283.205C27.4493 277.956 22.6934 277.956 19.7601 283.205C16.8268 288.455 16.8268 296.966 19.7601 302.215C22.6934 307.465 27.4493 307.465 30.3826 302.215Z" fill="#263238"/>
<path d="M36.7786 285.435L30.5939 294.782L28.3634 290.055L34.5481 280.708C34.8738 280.216 35.2954 279.976 35.7201 280.04C36.1449 280.104 36.538 280.467 36.813 281.05L36.9654 281.373C37.1026 281.661 37.2066 281.995 37.2715 282.356C37.3364 282.716 37.3608 283.096 37.3435 283.474C37.3261 283.851 37.2673 284.219 37.1704 284.555C37.0734 284.892 36.9403 285.191 36.7786 285.435Z" fill="#263238"/>
<path d="M28.923 268.318V282.406C28.923 282.515 28.8988 282.619 28.8558 282.696C28.8127 282.773 28.7543 282.817 28.6934 282.817H25.7021C25.6412 282.817 25.5828 282.773 25.5397 282.696C25.4967 282.619 25.4725 282.515 25.4725 282.406V268.318C25.4725 267.555 25.6418 266.823 25.9432 266.284C26.2446 265.745 26.6534 265.441 27.0797 265.441H27.3158C27.7421 265.441 28.1509 265.745 28.4523 266.284C28.7537 266.823 28.923 267.555 28.923 268.318Z" fill="#263238"/>
<path d="M23.3529 268.371L25.0714 282.119C25.0847 282.225 25.0739 282.337 25.0413 282.429C25.0086 282.521 24.9569 282.586 24.8975 282.61L21.9783 283.779C21.9189 283.802 21.8566 283.783 21.8052 283.725C21.7538 283.666 21.7174 283.574 21.7041 283.467L19.9856 269.719C19.8925 268.975 19.9685 268.195 20.1968 267.55C20.4252 266.906 20.7871 266.451 21.2031 266.284L21.4336 266.192C21.8496 266.025 22.2855 266.161 22.6454 266.57C23.0053 266.979 23.2598 267.627 23.3529 268.371Z" fill="#263238"/>
<path d="M17.3606 271.816L21.2966 284.017C21.3271 284.111 21.3353 284.223 21.3195 284.329C21.3038 284.434 21.2653 284.524 21.2126 284.578L18.622 287.255C18.5692 287.309 18.5066 287.324 18.4477 287.296C18.3889 287.268 18.3388 287.199 18.3083 287.104L14.3723 274.904C14.1592 274.243 14.1014 273.458 14.2118 272.721C14.3221 271.984 14.5915 271.356 14.9606 270.975L15.1651 270.763C15.5343 270.382 15.973 270.279 16.3847 270.476C16.7964 270.674 17.1475 271.156 17.3606 271.816Z" fill="#263238"/>
<path d="M189.701 474.167L197.971 467.872L174.107 367.453L165.837 373.748L189.701 474.167Z" fill="#DF33A8"/>
<path d="M175.293 377.05C179.667 367.808 179.027 353.97 173.864 346.141C168.7 338.312 160.967 339.457 156.593 348.698C152.218 357.94 152.858 371.778 158.022 379.607C163.186 387.436 170.918 386.291 175.293 377.05Z" fill="#263238"/>
<path d="M165.968 384.884C164.045 384.886 162.15 384.08 160.433 382.531C158.716 380.982 157.227 378.733 156.085 375.966C154.942 373.198 154.179 369.99 153.856 366.598C153.533 363.206 153.66 359.726 154.226 356.438C154.896 352.56 156.155 349.09 157.862 346.415C159.568 343.74 161.656 341.965 163.893 341.286C166.129 340.607 168.427 341.051 170.531 342.569C172.635 344.087 174.463 346.62 175.811 349.886C177.159 353.151 177.974 357.022 178.167 361.067C178.36 365.112 177.922 369.174 176.902 372.8C175.882 376.427 174.32 379.476 172.39 381.609C170.459 383.743 168.237 384.876 165.968 384.884ZM165.968 341C163.703 341.004 161.483 342.133 159.556 344.26C157.628 346.387 156.068 349.43 155.049 353.049C154.03 356.669 153.592 360.724 153.783 364.762C153.975 368.801 154.789 372.665 156.135 375.925C157.481 379.184 159.306 381.712 161.406 383.227C163.507 384.741 165.801 385.183 168.034 384.503C170.267 383.823 172.35 382.048 174.053 379.375C175.755 376.703 177.01 373.237 177.678 369.364C178.63 363.814 178.314 357.814 176.797 352.681C175.281 347.548 172.689 343.702 169.589 341.986C168.404 341.329 167.17 340.997 165.929 341H165.968Z" fill="#263238"/>
<path d="M190.754 428.444C192.113 419.692 189.25 410.625 184.36 408.193C179.469 405.761 174.403 410.884 173.044 419.636C171.685 428.388 174.548 437.455 179.438 439.887C184.329 442.319 189.395 437.196 190.754 428.444Z" fill="#263238"/>
<path d="M195.757 488.677C199.905 488.677 203.268 482.659 203.268 475.235C203.268 467.811 199.905 461.793 195.757 461.793C191.609 461.793 188.246 467.811 188.246 475.235C188.246 482.659 191.609 488.677 195.757 488.677Z" fill="#263238"/>
<path d="M185.933 488.772L190.139 476.422L193.091 479.641L188.885 491.992C188.663 492.644 188.306 493.111 187.891 493.29C187.477 493.47 187.04 493.348 186.676 492.951L186.474 492.731C186.293 492.536 186.136 492.278 186.01 491.973C185.885 491.668 185.794 491.321 185.744 490.953C185.694 490.585 185.685 490.203 185.717 489.829C185.749 489.455 185.823 489.096 185.933 488.772Z" fill="#263238"/>
<path d="M196.405 500.552L193.912 487.189C193.893 487.086 193.898 486.973 193.925 486.875C193.952 486.778 194 486.704 194.057 486.669L196.895 484.974C196.953 484.939 197.016 484.947 197.07 484.996C197.125 485.045 197.166 485.13 197.185 485.234L199.678 498.597C199.742 498.956 199.767 499.335 199.749 499.712C199.732 500.088 199.673 500.455 199.576 500.791C199.48 501.127 199.347 501.425 199.186 501.669C199.025 501.913 198.839 502.098 198.637 502.213L198.413 502.347C198.014 502.576 197.58 502.517 197.205 502.181C196.83 501.846 196.543 501.261 196.405 500.552Z" fill="#263238"/>
<path d="M201.685 497.349L197.622 485.282C197.607 485.236 197.596 485.185 197.592 485.132C197.587 485.078 197.589 485.024 197.596 484.971C197.603 484.919 197.616 484.87 197.634 484.826C197.652 484.783 197.675 484.746 197.7 484.718L200.263 481.956C200.288 481.928 200.317 481.909 200.347 481.901C200.377 481.893 200.407 481.896 200.436 481.909C200.466 481.922 200.493 481.945 200.517 481.977C200.542 482.009 200.562 482.049 200.578 482.096L204.64 494.162C204.86 494.816 204.926 495.599 204.824 496.339C204.721 497.08 204.458 497.717 204.093 498.11L203.891 498.329C203.526 498.722 203.088 498.84 202.674 498.657C202.261 498.473 201.905 498.003 201.685 497.349Z" fill="#263238"/>
<path d="M206.756 490.696L200.864 481.354C200.818 481.282 200.791 481.18 200.787 481.071C200.783 480.962 200.804 480.855 200.844 480.774L202.824 476.776C202.864 476.694 202.921 476.644 202.982 476.638C203.042 476.631 203.102 476.668 203.148 476.74L209.04 486.083C209.359 486.589 209.553 487.301 209.578 488.062C209.604 488.824 209.46 489.572 209.177 490.143L209.02 490.459C208.737 491.027 208.34 491.37 207.916 491.415C207.491 491.459 207.074 491.201 206.756 490.696Z" fill="#263238"/>
<path d="M71.504 337.807C71.504 337.807 72.3896 491.765 120.665 494.771C168.94 497.776 170.967 338.91 170.967 337.807C170.967 337.807 165.266 314.855 121.235 315.747C77.2046 316.64 71.504 337.807 71.504 337.807Z" fill="#DF33A8"/>
<path d="M98.6099 310.711H139.413C142.076 310.711 144.235 306.847 144.235 302.082V300.826C144.235 296.06 142.076 292.197 139.413 292.197L98.6099 292.197C95.947 292.197 93.7883 296.06 93.7883 300.826V302.082C93.7883 306.847 95.947 310.711 98.6099 310.711Z" fill="#263238"/>
<path d="M117.253 173.811H120.776V141.937H117.253V173.811Z" fill="#263238"/>
<path d="M172.878 268.701C178.441 266.336 181.878 256.348 180.556 246.394C179.234 236.44 173.653 230.288 168.091 232.654C162.529 235.02 159.092 245.008 160.414 254.962C161.736 264.916 167.316 271.067 172.878 268.701Z" fill="#DF33A8"/>
<path d="M68.2806 267.498C73.8561 265.235 77.3506 255.312 76.086 245.334C74.8213 235.356 69.2763 229.102 63.7009 231.365C58.1254 233.628 54.6309 243.552 55.8955 253.53C57.1602 263.508 62.7052 269.762 68.2806 267.498Z" fill="#DF33A8"/>
<path d="M116.965 166.896C116.965 166.896 74.8758 165.992 68.224 231.278C61.5722 296.564 97.1536 297.738 107.394 298.971C112.032 299.534 121.964 299.593 130.728 299.311C150.132 298.712 163.843 291.997 168.507 259.783C169.062 256.005 169.411 252.14 169.55 248.242C170.776 212.881 157.44 165.158 116.965 166.896Z" fill="#DF33A8"/>
<path d="M147.495 266.263L86.3492 267.965C84.8236 268.014 83.3076 267.523 81.8881 266.521C80.4686 265.52 79.1733 264.027 78.0766 262.128C76.9798 260.23 76.103 257.963 75.4963 255.457C74.8897 252.952 74.5651 250.256 74.5412 247.526C74.5152 244.795 74.7902 242.082 75.3506 239.541C75.911 237.001 76.7457 234.683 77.8071 232.72C78.8684 230.758 80.1355 229.189 81.536 228.103C82.9365 227.018 84.4428 226.437 85.9688 226.394L147.114 224.692C148.64 224.642 150.157 225.132 151.577 226.133C152.997 227.134 154.292 228.626 155.389 230.525C156.486 232.424 157.363 234.692 157.969 237.198C158.575 239.704 158.899 242.4 158.922 245.131C158.949 247.862 158.675 250.576 158.115 253.118C157.555 255.659 156.72 257.977 155.659 259.94C154.597 261.903 153.33 263.472 151.929 264.557C150.528 265.642 149.021 266.222 147.495 266.263Z" fill="#263238"/>
<path d="M99.056 245.26C98.9138 246.554 98.5604 247.744 98.0405 248.678C97.5206 249.613 96.8576 250.25 96.1352 250.511C95.4128 250.771 94.6635 250.642 93.9821 250.14C93.3007 249.638 92.7177 248.786 92.3068 247.691C91.896 246.597 91.6757 245.309 91.6739 243.99C91.6721 242.671 91.8888 241.381 92.2966 240.283C92.7044 239.184 93.285 238.327 93.9651 237.819C94.6451 237.311 95.394 237.176 96.1171 237.43C96.5974 237.598 97.0545 237.935 97.4622 238.419C97.8699 238.904 98.2202 239.528 98.4931 240.255C98.766 240.982 98.9562 241.799 99.0528 242.658C99.1494 243.516 99.1504 244.401 99.056 245.26Z" fill="white"/>
<path d="M141.755 244.039C141.614 245.334 141.261 246.525 140.742 247.461C140.223 248.398 139.56 249.037 138.837 249.299C138.115 249.561 137.365 249.434 136.683 248.933C136.001 248.432 135.417 247.58 135.006 246.486C134.595 245.391 134.374 244.102 134.372 242.783C134.369 241.464 134.586 240.173 134.994 239.074C135.402 237.975 135.983 237.117 136.663 236.609C137.343 236.101 138.093 235.966 138.816 236.22C139.785 236.561 140.638 237.576 141.189 239.042C141.74 240.508 141.944 242.305 141.755 244.039Z" fill="white"/>
<path d="M135.608 398.949C135.369 404.824 134.161 410.439 132.138 415.086C130.115 419.733 127.368 423.202 124.243 425.054C121.118 426.906 117.757 427.059 114.584 425.492C111.411 423.926 108.569 420.711 106.417 416.254C104.265 411.797 102.9 406.298 102.494 400.452C102.088 394.606 102.66 388.677 104.137 383.413C105.615 378.149 107.931 373.787 110.793 370.879C113.656 367.971 116.936 366.647 120.219 367.075C124.621 367.651 128.715 371.333 131.6 377.31C134.486 383.287 135.928 391.07 135.608 398.949Z" fill="#263238"/>
<path d="M131.102 398.362C130.926 402.643 130.046 406.736 128.571 410.122C127.096 413.509 125.093 416.036 122.816 417.385C120.538 418.734 118.088 418.844 115.776 417.702C113.463 416.559 111.392 414.214 109.824 410.965C108.256 407.716 107.262 403.707 106.967 399.446C106.672 395.185 107.09 390.864 108.167 387.028C109.245 383.192 110.934 380.014 113.02 377.896C115.107 375.778 117.498 374.814 119.89 375.128C121.479 375.335 123.03 376.1 124.453 377.38C125.877 378.66 127.145 380.429 128.187 382.587C129.228 384.744 130.021 387.248 130.521 389.955C131.021 392.662 131.219 395.518 131.102 398.362Z" fill="white"/>
<path d="M125.257 402.306C125.164 401.12 125.127 399.923 125.145 398.726C125.112 396.483 125.086 393.278 125.086 389.334L125.217 389.768L118.979 383.252H119.326L113.029 389.58C112.858 390.097 113.258 388.887 113.219 389.017V390.684V392.362C113.219 393.466 113.219 394.57 113.186 395.65C113.186 397.81 113.14 399.9 113.121 401.919L112.95 401.379L119.116 408.118H118.841C120.763 406.263 122.351 404.783 123.433 403.774C124.015 403.18 124.623 402.67 125.25 402.248C124.761 402.961 124.233 403.586 123.676 404.114C122.613 405.288 121.052 406.944 119.084 408.975L118.946 409.115L118.808 408.975L112.563 402.459L112.392 402.283V401.907C112.392 399.888 112.406 397.798 112.432 395.638C112.432 394.558 112.432 393.466 112.432 392.351V390.684V389.064C112.392 389.193 112.793 387.995 112.622 388.5L118.939 382.231L119.123 382.055L119.294 382.243L125.453 388.981L125.591 389.134V389.416C125.519 393.478 125.447 396.741 125.381 398.96C125.398 400.08 125.356 401.2 125.257 402.306Z" fill="#DF33A8"/>
<path d="M123.124 148.638C125.391 144.58 125.391 138.001 123.124 133.944C120.856 129.886 117.181 129.886 114.913 133.944C112.646 138.001 112.646 144.58 114.913 148.638C117.181 152.695 120.856 152.695 123.124 148.638Z" fill="#DF33A8"/>
<path d="M109.742 242.185C110.018 242.243 109.88 244.533 110.693 247.667C111.154 249.466 111.825 251.068 112.661 252.363C113.641 253.906 114.861 254.877 116.158 255.146C117.461 255.296 118.76 254.74 119.884 253.549C120.835 252.559 121.658 251.218 122.298 249.616C123.413 246.834 123.512 244.497 123.787 244.533C123.899 244.533 124.01 245.12 124.01 246.223C123.985 247.795 123.761 249.337 123.354 250.731C122.743 252.839 121.839 254.63 120.73 255.932C119.359 257.661 117.688 258.461 116.018 258.188C114.347 257.915 112.785 256.587 111.612 254.441C110.654 252.802 109.949 250.747 109.565 248.477C109.292 246.963 109.22 245.354 109.355 243.781C109.467 242.689 109.637 242.149 109.742 242.185Z" fill="white"/>
<path d="M165.784 272.603C165.719 272.603 166.473 270.49 167.201 266.791C168.107 261.948 168.68 256.926 168.907 251.835C169.17 246.762 169.235 241.662 169.104 236.573C169.058 234.612 169.005 233.051 168.953 231.877C168.908 231.309 168.897 230.735 168.92 230.163C169.004 230.716 169.059 231.282 169.084 231.853C169.176 232.945 169.268 234.53 169.346 236.549C169.552 241.68 169.519 246.832 169.248 251.952C169.017 257.091 168.406 262.152 167.431 267.003C167.122 268.466 166.749 269.883 166.316 271.241C166.161 271.721 165.983 272.177 165.784 272.603Z" fill="#263238"/>
<path d="M68.3027 229.094C68.2655 229.664 68.1974 230.227 68.0993 230.773C68.014 231.301 67.9222 231.947 67.8369 232.722C67.7516 233.497 67.6204 234.342 67.5417 235.317C67.3117 237.579 67.1584 239.865 67.0825 242.161C66.9943 244.97 67.0162 247.787 67.1481 250.59C67.2947 253.389 67.5489 256.166 67.9091 258.902C68.2102 261.14 68.587 263.344 69.0374 265.5C69.2145 266.427 69.4179 267.238 69.5819 267.965C69.7459 268.693 69.9033 269.304 70.0345 269.797C70.1841 270.304 70.307 270.834 70.4019 271.382C70.2152 270.916 70.0527 270.421 69.9164 269.903C69.731 269.316 69.5624 268.712 69.4113 268.095C69.2276 267.39 69.0046 266.58 68.8143 265.653C68.3273 263.502 67.924 261.293 67.6073 259.043C67.2234 256.281 66.9559 253.471 66.807 250.637C66.6733 247.806 66.6601 244.961 66.7676 242.126C66.8591 239.809 67.0388 237.507 67.3055 235.234C67.4039 234.26 67.5417 233.403 67.6532 232.64C67.7647 231.877 67.8697 231.231 67.9681 230.703C68.0551 230.151 68.167 229.613 68.3027 229.094Z" fill="#263238"/>
<path d="M71.2809 337.678L71.5302 337.807L72.2649 338.253L75.0595 340.014L77.08 341.305C77.8212 341.751 78.6412 342.174 79.5137 342.655C81.2652 343.583 83.2398 344.792 85.4833 345.731L88.9798 347.34C90.2 347.891 91.4857 348.302 92.8108 348.819C95.4348 349.899 98.3147 350.638 101.339 351.507C107.879 353.113 114.47 353.956 121.071 354.031C127.673 353.962 134.264 353.119 140.804 351.507C143.808 350.638 146.668 349.911 149.332 348.819C150.644 348.314 151.956 347.903 153.163 347.351L156.666 345.743C158.903 344.804 160.877 343.595 162.629 342.667C163.501 342.186 164.321 341.763 165.063 341.317L167.083 340.026L169.878 338.265L170.612 337.818C170.695 337.76 170.781 337.717 170.868 337.689L170.626 337.877L169.904 338.382L167.129 340.249L165.063 341.634C164.328 342.092 163.508 342.526 162.635 343.031C160.884 343.994 158.916 345.226 156.672 346.201L153.169 347.844C151.956 348.408 150.663 348.831 149.338 349.359C146.714 350.462 143.828 351.214 140.81 352.106C134.257 353.752 127.649 354.61 121.032 354.677C114.417 354.602 107.811 353.739 101.26 352.094C98.2491 351.214 95.3561 350.451 92.7321 349.347C91.4201 348.819 90.1081 348.396 88.9011 347.833L85.398 346.189C83.1545 345.215 81.1865 343.982 79.435 343.019C78.5625 342.514 77.7491 342.08 77.0078 341.622L74.9939 340.272L72.219 338.405L71.4974 337.901C71.4214 337.839 71.349 337.764 71.2809 337.678Z" fill="#263238"/>
<g opacity="0.3">
<path d="M71.504 337.807C71.504 337.807 77.2046 316.675 121.235 315.747C165.266 314.82 170.967 337.807 170.967 337.807C170.967 337.807 126.529 377.006 71.504 337.807Z" fill="black"/>
</g>
<path d="M111.631 171.78C111.581 171.788 111.531 171.788 111.481 171.78L111.041 171.862C110.648 171.932 110.07 171.956 109.329 172.108C107.237 172.472 105.162 173.087 103.117 173.952C92.5384 178.287 83.208 189.383 76.8766 205.157C73.8178 212.736 71.5019 221.193 70.028 230.163C69.7984 231.431 69.6738 232.44 69.5622 233.109L69.4376 233.884C69.4258 233.974 69.4082 234.06 69.3851 234.143C69.3764 234.053 69.3764 233.962 69.3851 233.873C69.3851 233.661 69.4376 233.403 69.477 233.086C69.5688 232.405 69.6672 231.384 69.8771 230.092C70.4246 226.445 71.1264 222.877 71.9763 219.421C74.7803 207.933 79.049 197.781 84.4403 189.777C89.8546 181.834 96.2327 176.269 103.064 173.529C105.121 172.692 107.211 172.139 109.316 171.874C110.064 171.756 110.628 171.768 111.035 171.733H111.481C111.586 171.756 111.631 171.768 111.631 171.78Z" fill="white"/>
<path d="M70.4544 262.154C70.1915 261.427 69.9883 260.636 69.8509 259.806C69.0727 255.883 68.7101 251.734 68.7816 247.573C68.7629 246.709 68.8204 245.845 68.9522 245.014C69.0571 245.014 68.9128 248.935 69.3326 253.678C69.7525 258.421 70.5528 262.084 70.4544 262.154Z" fill="white"/>
<path d="M59.4139 256.084C59.4139 256.084 59.263 255.897 59.0597 255.451C58.7698 254.818 58.5211 254.129 58.3184 253.396C57.6179 250.969 57.3498 248.216 57.5504 245.508C57.751 242.801 58.4105 240.268 59.4402 238.251C59.7417 237.634 60.083 237.082 60.457 236.608C60.5854 236.414 60.732 236.263 60.8899 236.162C60.9293 236.256 60.3389 236.972 59.6238 238.51C58.6854 240.521 58.0849 242.967 57.8922 245.565C57.6994 248.163 57.9223 250.805 58.5349 253.185C58.9941 255.051 59.4598 256.014 59.4139 256.084Z" fill="white"/>
<path d="M119.392 134.047C118.88 133.947 118.364 133.927 117.85 133.989C117.239 134.085 116.647 134.43 116.121 134.999C115.596 135.568 115.15 136.344 114.818 137.269C114.486 138.194 114.277 139.243 114.207 140.335C114.137 141.427 114.207 142.533 114.413 143.569C114.59 144.427 114.81 145.256 115.069 146.046C115.069 146.046 114.938 145.905 114.754 145.529C114.502 144.986 114.302 144.371 114.164 143.709C113.913 142.613 113.814 141.425 113.875 140.246C113.936 139.067 114.154 137.931 114.512 136.934C114.87 135.938 115.356 135.111 115.931 134.523C116.505 133.934 117.15 133.602 117.811 133.554C118.204 133.506 118.598 133.573 118.979 133.754C119.274 133.836 119.392 134.012 119.392 134.047Z" fill="white"/>
<path d="M176.569 241.844C176.497 241.985 175.48 240.236 173.945 238.921C172.41 237.606 171.013 237.218 171.026 237.031C172.095 236.983 173.152 237.445 174.089 238.369C175.075 239.107 175.932 240.308 176.569 241.844Z" fill="white"/>
<path d="M86.592 447.376C86.5621 447.306 86.5357 447.232 86.5133 447.153L86.2968 446.461C86.1 445.791 85.8376 444.899 85.4965 443.76C85.3259 443.173 85.1422 442.516 84.9323 441.811L84.3157 439.463C83.8696 437.761 83.371 435.824 82.879 433.593C82.6297 432.502 82.3673 431.351 82.0918 430.165C81.8163 428.98 81.5801 427.688 81.3112 426.385C80.747 423.791 80.2681 420.938 79.7105 417.979C78.6806 411.992 77.6704 405.359 76.7848 398.315C75.8992 391.271 75.2563 384.473 74.7315 378.286C74.2067 372.099 73.8656 366.546 73.6557 361.78C73.531 359.432 73.4523 357.295 73.3867 355.417C73.3211 353.538 73.2621 351.895 73.2424 350.603C73.2227 349.312 73.203 348.314 73.1833 347.563V346.776C73.1763 346.687 73.1763 346.596 73.1833 346.506C73.1909 346.596 73.1909 346.687 73.1833 346.776L73.2227 347.563C73.2227 348.302 73.2949 349.324 73.3408 350.592C73.3867 351.86 73.4523 353.527 73.5441 355.393C73.636 357.26 73.7213 359.397 73.8656 361.745C74.1017 366.441 74.5216 372.029 75.0136 378.181C75.5056 384.332 76.2206 391.095 77.0865 398.139C77.9525 405.183 78.9693 411.804 79.9729 417.78C80.5305 420.738 80.9963 423.579 81.5473 426.174C81.8097 427.489 82.059 428.745 82.3083 429.954L83.0693 433.406C83.5416 435.601 84.027 437.55 84.46 439.276L85.0504 441.624C85.2406 442.34 85.4243 442.997 85.5883 443.596L86.323 446.343L86.5067 447.059C86.5464 447.154 86.5754 447.262 86.592 447.376Z" fill="white"/>
<path d="M60.9227 351.66C59.3222 351.768 57.7194 351.666 56.1273 351.355C54.5277 351.254 52.9341 350.952 51.3582 350.451C52.9587 350.342 54.5614 350.444 56.1536 350.756C57.7532 350.855 59.3469 351.157 60.9227 351.66Z" fill="white"/>
<path d="M36.244 326.595C35.3136 324.17 34.4785 321.632 33.7446 318.999C32.9129 316.464 32.1808 313.827 31.5536 311.11C32.4811 313.54 33.314 316.082 34.0464 318.717C34.8823 321.247 35.6167 323.879 36.244 326.595Z" fill="white"/>
<path d="M109.88 484.392C109.622 484.384 109.365 484.329 109.112 484.228C108.418 484.007 107.733 483.709 107.059 483.336C106.059 482.791 105.081 482.12 104.133 481.328C102.979 480.332 101.869 479.178 100.814 477.877C99.7706 476.543 98.7879 475.063 97.8751 473.451C97.1359 472.125 96.4518 470.705 95.8284 469.201C95.4013 468.197 95.0133 467.142 94.6673 466.043C94.5257 465.657 94.409 465.243 94.3196 464.81C94.3721 464.751 94.9231 466.454 96.0187 468.943C96.6626 470.389 97.3572 471.762 98.0982 473.052C99.9139 476.209 101.997 478.832 104.271 480.823C105.2 481.626 106.155 482.328 107.131 482.925C108.811 483.935 109.893 484.275 109.88 484.392Z" fill="white"/>
<path d="M119.943 430.083C119.791 430.13 119.638 430.158 119.484 430.165C119.047 430.232 118.61 430.255 118.172 430.236C116.541 430.171 114.922 429.701 113.363 428.839C112.286 428.238 111.238 427.485 110.228 426.585C109.07 425.519 107.971 424.257 106.948 422.816C104.576 419.556 102.707 415.27 101.516 410.362C100.325 405.454 99.8509 400.084 100.138 394.758C100.245 392.446 100.476 390.158 100.827 387.925C101.142 385.988 101.548 384.103 102.041 382.29C102.752 379.66 103.666 377.221 104.757 375.046C105.049 374.451 105.36 373.887 105.688 373.356C105.797 373.161 105.913 372.98 106.036 372.815C106.036 372.815 105.603 373.649 104.855 375.163C103.805 377.373 102.923 379.82 102.231 382.442C101.199 386.307 100.585 390.485 100.42 394.758C100.155 399.99 100.628 405.257 101.797 410.076C102.966 414.895 104.794 419.111 107.112 422.335C108.105 423.766 109.173 425.024 110.3 426.092C111.288 427.024 112.317 427.809 113.376 428.44C114.912 429.331 116.507 429.856 118.119 430.001C119.307 430.083 119.943 430.013 119.943 430.083Z" fill="white"/>
<path d="M40.5211 337.631C40.5211 337.725 40.0159 337.29 39.2091 336.95C38.1294 336.527 37.0101 336.547 35.9354 337.008C34.8606 337.47 33.8582 338.361 33.0033 339.615C32.3473 340.589 32.0324 341.364 31.9865 341.305C32.1665 340.528 32.445 339.837 32.7999 339.286C33.6513 337.888 34.688 336.902 35.8119 336.421C36.9357 335.94 38.1095 335.981 39.2222 336.539C39.6963 336.719 40.1408 337.093 40.5211 337.631Z" fill="white"/>
<path d="M137.393 220.9C137.393 221.064 129.337 221.205 119.405 221.205C109.473 221.205 101.411 221.064 101.411 220.9C101.411 220.735 109.467 220.595 119.405 220.595C129.343 220.595 137.393 220.712 137.393 220.9Z" fill="white"/>
<path d="M106.692 294.31C106.593 294.36 106.492 294.387 106.39 294.392L105.511 294.533C105.13 294.592 104.665 294.639 104.12 294.662C103.576 294.686 102.959 294.733 102.277 294.662C100.906 294.662 99.279 294.486 97.475 294.146C95.5227 293.739 93.5846 293.139 91.6694 292.349C89.7587 291.529 87.8752 290.518 86.0278 289.32C84.5226 288.334 83.0468 287.209 81.6064 285.951C80.9504 285.435 80.4452 284.894 79.9664 284.437C79.4875 283.979 79.0808 283.568 78.7528 283.263L77.9984 282.441C77.9089 282.352 77.8253 282.246 77.7491 282.124C77.7491 282.124 77.854 282.124 78.0311 282.335L78.8184 283.051C79.1529 283.38 79.5662 283.767 80.0516 284.225C80.5371 284.683 81.0881 285.153 81.7113 285.646C82.9446 286.679 84.4468 287.783 86.1393 288.874C89.8178 291.235 93.6338 292.841 97.5143 293.664C99.2987 294.04 100.919 294.251 102.277 294.31C102.933 294.38 103.589 294.31 104.12 294.31C104.652 294.31 105.124 294.31 105.504 294.31H106.383C106.486 294.28 106.59 294.28 106.692 294.31Z" fill="white"/>
<path d="M159.06 347.21C159.012 347.268 158.959 347.311 158.903 347.34L158.431 347.657L156.607 348.831C155.813 349.347 154.842 349.946 153.694 350.545C152.546 351.143 151.254 351.918 149.791 352.576L147.508 353.656C146.714 354.02 145.875 354.325 145.015 354.689C143.297 355.428 141.434 356.016 139.479 356.685C130.964 359.339 122.31 360.288 113.678 359.514C111.71 359.291 109.801 359.115 108.043 358.751C107.164 358.587 106.311 358.469 105.498 358.27L103.156 357.694C101.66 357.377 100.322 356.896 99.1478 356.52C97.9736 356.145 96.9568 355.792 96.1368 355.452L94.2475 354.701L93.7555 354.489C93.6985 354.473 93.6433 354.441 93.5915 354.395C93.6504 354.387 93.7097 354.387 93.7686 354.395L94.2606 354.548L96.163 355.194C96.9896 355.487 97.9998 355.828 99.1806 356.145C100.361 356.462 101.693 356.919 103.189 357.213L105.524 357.741C106.338 357.929 107.19 358.035 108.069 358.187C109.821 358.528 111.71 358.68 113.691 358.892C117.66 359.185 122.023 359.197 126.601 358.716C131.18 358.234 135.503 357.213 139.42 356.062C141.388 355.417 143.238 354.888 144.956 354.137C145.816 353.785 146.655 353.491 147.449 353.139L149.732 352.094C151.195 351.472 152.487 350.744 153.635 350.157C154.783 349.57 155.767 348.983 156.561 348.549L158.404 347.492L158.89 347.234L159.06 347.21Z" fill="white"/>
</svg>
