<svg width="24" height="25" viewBox="0 0 24 25" fill="none" xmlns="http://www.w3.org/2000/svg">
<path d="M21.7183 12.5949C21.7183 11.706 21.6493 11.0574 21.4999 10.3848H11.7904V14.3966H17.4897C17.3748 15.3935 16.7543 16.895 15.3754 17.9039L15.3561 18.0382L18.4261 20.5243L18.6388 20.5465C20.5921 18.6607 21.7183 15.886 21.7183 12.5949Z" fill="#4285F4"/>
<path d="M11.7897 23.1651C14.5818 23.1651 16.9259 22.2041 18.638 20.5465L15.3747 17.9039C14.5014 18.5405 13.3294 18.985 11.7897 18.985C9.05496 18.985 6.73389 17.0992 5.90649 14.4927L5.78521 14.5034L2.59302 17.0859L2.55127 17.2073C4.25185 20.7386 7.74498 23.1651 11.7897 23.1651Z" fill="#34A853"/>
<path d="M5.90715 14.4928C5.68883 13.8202 5.56249 13.0994 5.56249 12.3547C5.56249 11.61 5.68883 10.8893 5.89566 10.2167L5.88988 10.0734L2.65767 7.44946L2.55192 7.50204C1.85103 8.96746 1.44885 10.6131 1.44885 12.3547C1.44885 14.0964 1.85103 15.7419 2.55192 17.2073L5.90715 14.4928Z" fill="#FBBC05"/>
<path d="M11.7897 5.7244C13.7316 5.7244 15.0415 6.60124 15.7884 7.33399L18.707 4.35512C16.9146 2.61346 14.5819 1.54443 11.7897 1.54443C7.74501 1.54443 4.25186 3.97074 2.55127 7.50208L5.89502 10.2167C6.73391 7.61023 9.05499 5.7244 11.7897 5.7244Z" fill="#EB4335"/>
</svg>
