<svg width="1440" height="120" viewBox="0 0 1440 120" fill="none" xmlns="http://www.w3.org/2000/svg">
<path fill-rule="evenodd" clip-rule="evenodd" d="M0 105.809L14.4 91.6173C28.8 77.4259 56.4 49.0432 85.2 30.1213C112.8 11.1995 141.6 1.7386 169.2 1.7386C198 1.7386 225.6 11.1995 254.4 25.3909C282 39.5822 310.8 58.5041 338.4 65.5998C367.2 72.6954 394.8 67.965 423.6 70.3302C451.2 72.6954 480 82.1563 508.8 72.6954C536.4 63.2345 565.2 34.8518 592.8 18.2952C621.6 1.7386 649.2 -2.99186 678 1.7386C705.6 6.46905 734.4 20.6604 762 32.4866C790.8 44.3127 818.4 53.7736 847.2 56.1388C874.8 58.5041 903.6 53.7736 931.2 58.5041C960 63.2345 988.8 77.4259 1016.4 70.3302C1045.2 63.2345 1072.8 34.8518 1101.6 30.1213C1129.2 25.3909 1158 44.3127 1185.6 63.2345C1214.4 82.1563 1242 101.078 1270.8 98.7129C1298.4 96.3477 1327.2 72.6954 1354.8 56.1388C1383.6 39.5822 1411.2 30.1213 1425.6 25.3909L1440 20.6604V120H1425.6C1411.2 120 1383.6 120 1354.8 120C1327.2 120 1298.4 120 1270.8 120C1242 120 1214.4 120 1185.6 120C1158 120 1129.2 120 1101.6 120C1072.8 120 1045.2 120 1016.4 120C988.8 120 960 120 931.2 120C903.6 120 874.8 120 847.2 120C818.4 120 790.8 120 762 120C734.4 120 705.6 120 678 120C649.2 120 621.6 120 592.8 120C565.2 120 536.4 120 508.8 120C480 120 451.2 120 423.6 120C394.8 120 367.2 120 338.4 120C310.8 120 282 120 254.4 120C225.6 120 198 120 169.2 120C141.6 120 112.8 120 85.2 120C56.4 120 28.8 120 14.4 120H0V105.809Z" fill="url(#paint0_linear_1_3)"/>
<defs>
<linearGradient id="paint0_linear_1_3" x1="720" y1="0" x2="720" y2="120" gradientUnits="userSpaceOnUse">
<stop stop-color="#E33DA2"/>
<stop offset="1" stop-color="#002A63"/>
</linearGradient>
</defs>
</svg>
