<svg width="1440" height="120" viewBox="0 0 1440 120" fill="none" xmlns="http://www.w3.org/2000/svg">
<path fill-rule="evenodd" clip-rule="evenodd" d="M0 14.1914L14.4 28.3827C28.8 42.5741 56.4 70.9568 85.2 89.8787C112.8 108.8 141.6 118.261 169.2 118.261C198 118.261 225.6 108.8 254.4 94.6091C282 80.4178 310.8 61.4959 338.4 54.4002C367.2 47.3046 394.8 52.035 423.6 49.6698C451.2 47.3046 480 37.8437 508.8 47.3046C536.4 56.7655 565.2 85.1482 592.8 101.705C621.6 118.261 649.2 122.992 678 118.261C705.6 113.531 734.4 99.3396 762 87.5134C790.8 75.6873 818.4 66.2264 847.2 63.8612C874.8 61.4959 903.6 66.2264 931.2 61.4959C960 56.7655 988.8 42.5741 1016.4 49.6698C1045.2 56.7655 1072.8 85.1482 1101.6 89.8787C1129.2 94.6091 1158 75.6873 1185.6 56.7655C1214.4 37.8437 1242 18.9218 1270.8 21.2871C1298.4 23.6523 1327.2 47.3046 1354.8 63.8612C1383.6 80.4178 1411.2 89.8787 1425.6 94.6091L1440 99.3396V0H1425.6C1411.2 0 1383.6 0 1354.8 0C1327.2 0 1298.4 0 1270.8 0C1242 0 1214.4 0 1185.6 0C1158 0 1129.2 0 1101.6 0C1072.8 0 1045.2 0 1016.4 0C988.8 0 960 0 931.2 0C903.6 0 874.8 0 847.2 0C818.4 0 790.8 0 762 0C734.4 0 705.6 0 678 0C649.2 0 621.6 0 592.8 0C565.2 0 536.4 0 508.8 0C480 0 451.2 0 423.6 0C394.8 0 367.2 0 338.4 0C310.8 0 282 0 254.4 0C225.6 0 198 0 169.2 0C141.6 0 112.8 0 85.2 0C56.4 0 28.8 0 14.4 0H0V14.1914Z" fill="url(#paint0_linear_24_2)"/>
<defs>
<linearGradient id="paint0_linear_24_2" x1="720" y1="120" x2="720" y2="0" gradientUnits="userSpaceOnUse">
<stop stop-color="#E33DA2"/>
<stop offset="1" stop-color="#002A63"/>
</linearGradient>
</defs>
</svg>
